<?xml version="1.0" encoding="iso-8859-1"?>
<!-- Generator: Adobe Illustrator 18.1.1, SVG Export Plug-In . SVG Version: 6.00 Build 0)  -->
<svg version="1.1" xmlns="http://www.w3.org/2000/svg" xmlns:xlink="http://www.w3.org/1999/xlink" x="0px" y="0px"
	 viewBox="0 0 8 8" style="enable-background:new 0 0 8 8;" xml:space="preserve">
<g id="aperture">
	<g>
		<path d="M1.185,1.1L1.185,1.1L1.185,1.1z"/>
		<path d="M6.025,0.6C5.432,0.2,4.741,0,3.951,0C3.259,0,2.667,0.2,2.074,0.5l3.16,2.3L6.025,0.6z"/>
		<path d="M1.185,1.1C0.395,1.8,0,2.8,0,4c0,0.3,0,0.5,0.099,0.7l3.062-2.2L1.185,1.1z"/>
		<path d="M0.395,5.7c0.494,1.1,1.58,2,2.864,2.2L2.173,4.4L0.395,5.7z"/>
		<path d="M4.247,8c1.284-0.1,2.469-0.9,3.062-2H3.654L4.247,8z"/>
		<path d="M6.815,1.3L5.63,5.1h2.173C7.901,4.8,8,4.4,8,4.1C7.901,2.9,7.506,2,6.815,1.3z"/>
	</g>
</g>
<g id="Layer_1">
</g>
</svg>
