<?xml version="1.0" encoding="iso-8859-1"?>
<!-- Generator: Adobe Illustrator 18.1.1, SVG Export Plug-In . SVG Version: 6.00 Build 0)  -->
<svg version="1.1" xmlns="http://www.w3.org/2000/svg" xmlns:xlink="http://www.w3.org/1999/xlink" x="0px" y="0px"
	 viewBox="0 0 8 8" style="enable-background:new 0 0 8 8;" xml:space="preserve">
<g id="audio">
	<g>
		<path d="M1.9,1.689L1.2,1c-1.6,1.672-1.6,4.23,0,5.902l0.7-0.787C0.7,4.934,0.7,2.967,1.9,1.689z"/>
		<path d="M6.8,1L6.1,1.787c1.2,1.18,1.2,3.246,0,4.426L6.8,7C8.4,5.23,8.4,2.672,6.8,1z"/>
		<path d="M2.6,2.475c-0.8,0.787-0.8,2.164,0,2.951l0.7-0.689c-0.4-0.393-0.4-1.082,0-1.475L2.6,2.475z"/>
		<path d="M4.7,3.262c0.4,0.393,0.4,1.082,0,1.475l0.7,0.689c0.8-0.787,0.8-2.164,0-2.951L4.7,3.262z"/>
	</g>
</g>
<g id="Layer_1">
</g>
</svg>
