<?xml version="1.0" encoding="iso-8859-1"?>
<!-- Generator: Adobe Illustrator 18.1.1, SVG Export Plug-In . SVG Version: 6.00 Build 0)  -->
<svg version="1.1" xmlns="http://www.w3.org/2000/svg" xmlns:xlink="http://www.w3.org/1999/xlink" x="0px" y="0px"
	 viewBox="0 0 8 8" style="enable-background:new 0 0 8 8;" xml:space="preserve">
<g id="ban">
	<g>
		<path d="M4,0C1.8,0,0,1.8,0,4s1.8,4,4,4s4-1.8,4-4S6.2,0,4,0z M4,1c0.66,0,1.26,0.21,1.75,0.56L1.56,5.75C1.21,5.26,1,4.66,1,4
			C1,2.34,2.34,1,4,1z M6.44,2.25C6.79,2.74,7,3.34,7,4c0,1.66-1.34,3-3,3C3.34,7,2.74,6.79,2.25,6.44L6.44,2.25z"/>
	</g>
</g>
<g id="Layer_1">
</g>
</svg>
