<?xml version="1.0" encoding="iso-8859-1"?>
<!-- Generator: Adobe Illustrator 18.1.1, SVG Export Plug-In . SVG Version: 6.00 Build 0)  -->
<svg version="1.1" xmlns="http://www.w3.org/2000/svg" xmlns:xlink="http://www.w3.org/1999/xlink" x="0px" y="0px"
	 viewBox="0 0 8 8" style="enable-background:new 0 0 8 8;" xml:space="preserve">
<g id="basket">
	<g>
		<path d="M2,1v2H0v1h1v3c0,0.6,0.4,1,1,1h4c0.6,0,1-0.4,1-1V4h1V3H6V1c0-0.6-0.4-1-1-1H3C2.4,0,2,0.4,2,1z M5,3H3V1h2V3z M3,5v1.5
			C3,6.8,2.8,7,2.5,7S2,6.8,2,6.5V5H3z M6,5v1.5C6,6.8,5.8,7,5.5,7S5,6.8,5,6.5V5H6z"/>
	</g>
</g>
<g id="Layer_1">
</g>
</svg>
