<?xml version="1.0" encoding="iso-8859-1"?>
<!-- Generator: Adobe Illustrator 18.1.1, SVG Export Plug-In . SVG Version: 6.00 Build 0)  -->
<svg version="1.1" xmlns="http://www.w3.org/2000/svg" xmlns:xlink="http://www.w3.org/1999/xlink" x="0px" y="0px"
	 viewBox="0 0 8 8" style="enable-background:new 0 0 8 8;" xml:space="preserve">
<g id="beaker">
	<g>
		<path d="M7.6,5C7,4,6,2.7,6,2V1h0.5C6.8,1,7,0.8,7,0.5S6.8,0,6.5,0h-5C1.2,0,1,0.2,1,0.5S1.2,1,1.5,1H2v1c0,0.7-1.1,2-1.6,3
			C0.2,5.4,0,5.7,0,6c0,1.3,0.7,2,2,2h4c1.3,0,2-0.7,2-2C8,5.7,7.8,5.4,7.6,5z M1.4,5C2,4,3,2.7,3,2V1h2v1c0,0.7,1.1,2,1.6,3H1.4z"
			/>
	</g>
</g>
<g id="Layer_1">
</g>
</svg>
