<?xml version="1.0" encoding="iso-8859-1"?>
<!-- Generator: Adobe Illustrator 18.1.1, SVG Export Plug-In . SVG Version: 6.00 Build 0)  -->
<svg version="1.1" xmlns="http://www.w3.org/2000/svg" xmlns:xlink="http://www.w3.org/1999/xlink" x="0px" y="0px"
	 viewBox="0 0 8 8" style="enable-background:new 0 0 8 8;" xml:space="preserve">
<g id="binder">
	<path d="M2,0v0.5H1C0.724,0.5,0.5,0.724,0.5,1v1c0,0.276,0.224,0.5,0.5,0.5h1V3H1C0.724,3,0.5,3.224,0.5,3.5v1
		C0.5,4.776,0.724,5,1,5h1v0.5H1C0.724,5.5,0.5,5.724,0.5,6v1c0,0.276,0.224,0.5,0.5,0.5h1V8h5.5C7.776,8,8,7.776,8,7.5v-7
		C8,0.224,7.776,0,7.5,0H2z M1,2V1h1h1v1H2H1z M1,4.5v-1h1h1v1H2H1z M1,7V6h1h1v1H2H1z"/>
</g>
<g id="Layer_1">
</g>
</svg>
