<?xml version="1.0" encoding="iso-8859-1"?>
<!-- Generator: Adobe Illustrator 18.1.1, SVG Export Plug-In . SVG Version: 6.00 Build 0)  -->
<svg version="1.1" xmlns="http://www.w3.org/2000/svg" xmlns:xlink="http://www.w3.org/1999/xlink" x="0px" y="0px"
	 viewBox="0 0 8 8" style="enable-background:new 0 0 8 8;" xml:space="preserve">
<g id="bold">
	<g>
		<title>Layer 1</title>
		<path d="M6.6,3.3C6.9,3,7,2.5,7,2c0-1.1-0.9-2-2-2H0v1c0.5,0,1,0.5,1,1v4c0,0.5-0.5,1-1,1v1h5.5C6.9,8,8,6.9,8,5.5
			C8,4.5,7.4,3.7,6.6,3.3z M3,1h1c0.5,0,1,0.5,1,1S4.5,3,4,3H3V1z M4.5,7H3V4h1.5C5.3,4,6,4.7,6,5.5S5.3,7,4.5,7z"/>
	</g>
</g>
<g id="Layer_1">
</g>
</svg>
