<?xml version="1.0" encoding="iso-8859-1"?>
<!-- Generator: Adobe Illustrator 18.1.1, SVG Export Plug-In . SVG Version: 6.00 Build 0)  -->
<svg version="1.1" xmlns="http://www.w3.org/2000/svg" xmlns:xlink="http://www.w3.org/1999/xlink" x="0px" y="0px"
	 viewBox="0 0 8 8" style="enable-background:new 0 0 8 8;" xml:space="preserve">
<g id="briefcase">
	<g>
		<title>Layer 1</title>
		<path d="M6,2V1c0-0.6-0.4-1-1-1H3C2.4,0,2,0.4,2,1v1H0v2c0,0.6,0.4,1,1,1h6c0.6,0,1-0.4,1-1V2H6z M5,2H3V1h2V2z"/>
		<path d="M7,5.5H1c-0.6,0-1-0.4-1-1V8h8V4.5C8,5.1,7.6,5.5,7,5.5z"/>
	</g>
</g>
<g id="Layer_1">
</g>
</svg>
