<?xml version="1.0" encoding="iso-8859-1"?>
<!-- Generator: Adobe Illustrator 18.1.1, SVG Export Plug-In . SVG Version: 6.00 Build 0)  -->
<svg version="1.1" xmlns="http://www.w3.org/2000/svg" xmlns:xlink="http://www.w3.org/1999/xlink" x="0px" y="0px"
	 viewBox="0 0 8 8" style="enable-background:new 0 0 8 8;" xml:space="preserve">
<g id="browser">
	<g>
		<title>Layer 1</title>
		<path d="M0.341,0.002c-0.213,0.071-0.352,0.276-0.34,0.5V7.5c0,0.276,0.224,0.5,0.5,0.5H7.5C7.776,8,8,7.776,8,7.5V0.502
			c0-0.276-0.224-0.5-0.5-0.5H0.501c-0.03-0.003-0.06-0.003-0.09,0c-0.02-0.001-0.04-0.001-0.06,0H0.341z M1.511,1.002
			c0.28,0,0.5,0.22,0.5,0.5s-0.22,0.5-0.5,0.5s-0.5-0.22-0.5-0.5S1.231,1.002,1.511,1.002z M3.51,1.002h3c0.28,0,0.5,0.22,0.5,0.5
			s-0.22,0.5-0.5,0.5h-3c-0.28,0-0.5-0.22-0.5-0.5S3.23,1.002,3.51,1.002z M1.011,3.001H7.01V7H1.011L1.011,3.001z"/>
	</g>
</g>
<g id="Layer_1">
</g>
</svg>
