<?xml version="1.0" encoding="iso-8859-1"?>
<!-- Generator: Adobe Illustrator 18.1.1, SVG Export Plug-In . SVG Version: 6.00 Build 0)  -->
<svg version="1.1" xmlns="http://www.w3.org/2000/svg" xmlns:xlink="http://www.w3.org/1999/xlink" x="0px" y="0px"
	 viewBox="0 0 8 8" style="enable-background:new 0 0 8 8;" xml:space="preserve">
<g id="bug">
	<g>
		<title>Layer 1</title>
		<path d="M3.989,0.011c-1.33,0-2.212,1.754-1.33,2.594C2.558,2.678,2.436,2.75,2.346,2.833L0.882,2.148
			c-0.115-0.062-0.249-0.084-0.38-0.062c-0.3,0.068-0.483,0.349-0.41,0.627c0.041,0.154,0.154,0.282,0.309,0.348l1.296,0.581
			C1.596,3.808,1.485,3.984,1.418,4.161H0.647c-0.033-0.003-0.067-0.003-0.101,0C0.237,4.187,0.01,4.44,0.038,4.727
			s0.3,0.498,0.609,0.472h0.559c0,0.239,0.022,0.467,0.067,0.685L0.402,6.309c-0.296,0.08-0.466,0.368-0.38,0.643
			s0.397,0.433,0.693,0.353C0.779,7.288,0.84,7.259,0.894,7.222l0.737-0.353C1.91,7.346,2.324,7.751,2.782,8
			C3.173,7.803,3.5,7.541,3.5,7.25c0,0,0-1.987,0-2.75C3.5,4.122,3.732,4,4,4c0.313,0,0.5,0.209,0.5,0.5v2.75
			c0,0.28,0.327,0.542,0.718,0.74c0.458-0.259,0.883-0.654,1.151-1.131l0.737,0.353c0.247,0.172,0.597,0.125,0.782-0.104
			s0.135-0.554-0.112-0.726C7.722,6.345,7.662,6.316,7.597,6.299L6.726,5.874c0.045-0.218,0.067-0.446,0.067-0.685h0.559
			c0.309,0,0.559-0.232,0.559-0.519s-0.25-0.519-0.559-0.519H6.581C6.514,3.975,6.402,3.798,6.302,3.632l1.296-0.581
			c0.276-0.128,0.389-0.439,0.251-0.696c-0.11-0.206-0.354-0.32-0.598-0.28C7.2,2.089,7.151,2.11,7.106,2.137L5.642,2.822
			C5.541,2.739,5.43,2.666,5.329,2.594C6.2,1.733,5.329,0,3.999,0L3.989,0.011z"/>
	</g>
</g>
<g id="Layer_1">
</g>
</svg>
