<?xml version="1.0" encoding="iso-8859-1"?>
<!-- Generator: Adobe Illustrator 18.1.1, SVG Export Plug-In . SVG Version: 6.00 Build 0)  -->
<svg version="1.1" xmlns="http://www.w3.org/2000/svg" xmlns:xlink="http://www.w3.org/1999/xlink" x="0px" y="0px"
	 viewBox="0 0 8 8" style="enable-background:new 0 0 8 8;" xml:space="preserve">
<g id="bug">
	<g>
		<title>Layer 1</title>
	</g>
	<g>
		<title>Layer 1</title>
	</g>
	<path d="M4,0C2.67,0,1.879,1.733,2.75,2.594C2.649,2.666,2.459,2.739,2.358,2.822L0.894,2.137C0.849,2.11,0.8,2.089,0.749,2.075
		c-0.244-0.04-0.488,0.074-0.598,0.28C0.013,2.612,0.126,2.923,0.402,3.051l1.296,0.581c-0.1,0.166-0.212,0.343-0.279,0.519H0.648
		c-0.309,0-0.559,0.232-0.559,0.519s0.25,0.519,0.559,0.519h0.559c0,0.239,0.022,0.467,0.067,0.685c0,0-0.996,0.471-1.05,0.508
		c-0.247,0.172-0.297,0.497-0.112,0.726c0.185,0.229,0.535,0.276,0.782,0.104l0.737-0.353C1.899,7.336,2.292,7.741,2.75,8
		C3.141,7.802,3.5,7.53,3.5,7.25l0-2.75C3.5,4.224,3.724,4,4,4s0.5,0.224,0.5,0.5l0,2.75C4.5,7.53,4.859,7.802,5.25,8
		c0.458-0.259,0.851-0.664,1.119-1.141l0.737,0.353c0.247,0.172,0.597,0.125,0.782-0.104s0.135-0.554-0.112-0.726
		c-0.054-0.037-1.05-0.508-1.05-0.508c0.045-0.218,0.067-0.446,0.067-0.685h0.559c0.309,0,0.559-0.232,0.559-0.519
		s-0.25-0.519-0.559-0.519H6.581C6.514,3.975,6.402,3.798,6.302,3.632l1.296-0.581c0.276-0.128,0.389-0.439,0.251-0.696
		c-0.11-0.206-0.354-0.32-0.598-0.28C7.2,2.089,7.151,2.11,7.106,2.137L5.642,2.822C5.541,2.739,5.351,2.666,5.25,2.594
		C6.121,1.733,5.33,0,4,0z"/>
</g>
<g id="Layer_1">
</g>
</svg>
