<?xml version="1.0" encoding="iso-8859-1"?>
<!-- Generator: Adobe Illustrator 18.1.1, SVG Export Plug-In . SVG Version: 6.00 Build 0)  -->
<svg version="1.1" xmlns="http://www.w3.org/2000/svg" xmlns:xlink="http://www.w3.org/1999/xlink" x="0px" y="0px"
	 viewBox="0 0 8 8" style="enable-background:new 0 0 8 8;" xml:space="preserve">
<g id="camera-slr">
	<g>
		<path d="M7,2L6,0H4L3,2H1C0.448,2,0,2.448,0,3v5h8V2H7z M1.5,4C1.224,4,1,3.776,1,3.5C1,3.224,1.224,3,1.5,3S2,3.224,2,3.5
			C2,3.776,1.776,4,1.5,4z M5,7C3.895,7,3,6.105,3,5c0-1.105,0.895-2,2-2s2,0.895,2,2C7,6.105,6.105,7,5,7z"/>
		<circle cx="5" cy="5" r="1"/>
	</g>
</g>
<g id="Layer_1">
</g>
</svg>
