<?xml version="1.0" encoding="iso-8859-1"?>
<!-- Generator: Adobe Illustrator 18.1.1, SVG Export Plug-In . SVG Version: 6.00 Build 0)  -->
<svg version="1.1" xmlns="http://www.w3.org/2000/svg" xmlns:xlink="http://www.w3.org/1999/xlink" x="0px" y="0px"
	 viewBox="0 0 8 8" style="enable-background:new 0 0 8 8;" xml:space="preserve">
<g id="cart">
	<g>
		<circle cx="6.5" cy="6.5" r="0.5"/>
		<circle cx="3.5" cy="6.5" r="0.5"/>
		<path d="M8,2.24C7.994,2.105,7.879,2,7.744,2H3L2.638,1.276C2.554,1.107,2.38,1,2.191,1H1.679H1.481H0.508
			C0.234,1,0.005,1.217,0,1.491C-0.005,1.772,0.221,2,0.5,2h1.381l1.137,2.843l0,0C3.055,4.935,3.145,5,3.25,5h3.5
			c0.105,0,0.195-0.065,0.232-0.157l0,0l1-2.5l0,0C7.995,2.311,8.001,2.276,8,2.24z"/>
	</g>
</g>
<g id="Layer_1">
</g>
</svg>
