<?xml version="1.0" encoding="iso-8859-1"?>
<!-- Generator: Adobe Illustrator 18.1.1, SVG Export Plug-In . SVG Version: 6.00 Build 0)  -->
<svg version="1.1" xmlns="http://www.w3.org/2000/svg" xmlns:xlink="http://www.w3.org/1999/xlink" x="0px" y="0px"
	 viewBox="0 0 8 8" style="enable-background:new 0 0 8 8;" xml:space="preserve">
<g id="cart">
	<g>
		<title>Layer 1</title>
		<path d="M0.426,1c-0.28,0.04-0.46,0.3-0.42,0.58s0.3,0.46,0.58,0.42h1.5l0.09,0.25l0.41,1.25l0.41,1.25
			C3.036,4.88,3.206,5,3.337,5h3.501c0.14,0,0.3-0.12,0.34-0.25l0.81-2.5C8.028,2.12,7.968,2,7.828,2H3.387l-0.38-0.72
			C2.926,1.11,2.756,1,2.566,1H0.566c-0.03,0-0.06,0-0.09,0c-0.02,0-0.04,0-0.06,0H0.426z M3.5,6C3.22,6,3,6.22,3,6.5S3.22,7,3.5,7
			S4,6.78,4,6.5S3.78,6,3.5,6z M6.5,6C6.22,6,6,6.22,6,6.5S6.22,7,6.5,7S7,6.78,7,6.5S6.78,6,6.5,6z"/>
	</g>
</g>
<g id="Layer_1">
</g>
</svg>
