<?xml version="1.0" encoding="iso-8859-1"?>
<!-- Generator: Adobe Illustrator 18.1.1, SVG Export Plug-In . SVG Version: 6.00 Build 0)  -->
<svg version="1.1" xmlns="http://www.w3.org/2000/svg" xmlns:xlink="http://www.w3.org/1999/xlink" x="0px" y="0px"
	 viewBox="0 0 8 8" style="enable-background:new 0 0 8 8;" xml:space="preserve">
<g id="clipboard">
	<g>
		<title>Layer 1</title>
		<path d="M3.5,0C3.22,0,3,0.22,3,0.5V1H2.25C2.11,1,2,1.11,2,1.25V2h3V1.25C5,1.11,4.89,1,4.75,1H4V0.5C4,0.22,3.78,0,3.5,0z
			 M0.25,1C0.11,1,0,1.11,0,1.25v6.5C0,7.89,0.11,8,0.25,8h6.5C6.89,8,7,7.89,7,7.75v-6.5C7,1.11,6.89,1,6.75,1H6v2H1V1H0.25z"/>
	</g>
</g>
<g id="Layer_1">
</g>
</svg>
