<?xml version="1.0" encoding="iso-8859-1"?>
<!-- Generator: Adobe Illustrator 18.1.1, SVG Export Plug-In . SVG Version: 6.00 Build 0)  -->
<svg version="1.1" xmlns="http://www.w3.org/2000/svg" xmlns:xlink="http://www.w3.org/1999/xlink" x="0px" y="0px"
	 viewBox="0 0 8 8" style="enable-background:new 0 0 8 8;" xml:space="preserve">
<g id="cloud-upload">
	<g>
		<title>Layer 1</title>
		<path d="M4.5,0C3.29,0,2.23,0.86,2,2C0.9,2,0,2.9,0,4c0,0.37,0.11,0.71,0.28,1H2.5l2-2l2,2h1.41C7.97,4.84,8,4.68,8,4.5
			C8,3.85,7.58,3.21,7,3V2.5C7,1.12,5.88,0,4.5,0z M4.5,4.5L2,7h2v0.5C4,7.776,4.224,8,4.5,8S5,7.776,5,7.5V7h2L4.5,4.5z"/>
	</g>
</g>
<g id="Layer_1">
</g>
</svg>
