<?xml version="1.0" encoding="iso-8859-1"?>
<!-- Generator: Adobe Illustrator 18.1.1, SVG Export Plug-In . SVG Version: 6.00 Build 0)  -->
<svg version="1.1" xmlns="http://www.w3.org/2000/svg" xmlns:xlink="http://www.w3.org/1999/xlink" x="0px" y="0px"
	 viewBox="0 0 8 8" style="enable-background:new 0 0 8 8;" xml:space="preserve">
<g id="cloudy">
	<g>
		<title>Layer 1</title>
		<path d="M2.5,0C1.12,0,0,1.12,0,2.5c0,0.39,0.09,0.74,0.25,1.06c0.3-0.21,0.64-0.37,1-0.47C1.8,1.84,3.07,1,4.5,1
			C4.04,0.4,3.32,0,2.5,0z M4.5,2C3.29,2,2.23,2.86,2,4C0.9,4,0,4.9,0,6s0.9,2,2,2h4.5C7.33,8,8,7.33,8,6.5C8,5.85,7.58,5.21,7,5
			V4.5C7,3.12,5.88,2,4.5,2z"/>
	</g>
</g>
<g id="Layer_1">
</g>
</svg>
