<?xml version="1.0" encoding="iso-8859-1"?>
<!-- Generator: Adobe Illustrator 18.1.1, SVG Export Plug-In . SVG Version: 6.00 Build 0)  -->
<svg version="1.1" xmlns="http://www.w3.org/2000/svg" xmlns:xlink="http://www.w3.org/1999/xlink" x="0px" y="0px"
	 viewBox="0 0 8 8" style="enable-background:new 0 0 8 8;" xml:space="preserve">
<g id="cloud-download">
	<g>
		<title>Layer 1</title>
		<path d="M4.5,0C3.29,0,2.23,0.86,2,2C0.9,2,0,2.9,0,4c0,0.37,0.11,0.71,0.28,1H3V4.5C3,3.67,3.67,3,4.5,3S6,3.67,6,4.5V5h1.91
			C7.97,4.84,8,4.68,8,4.5C8,3.85,7.58,3.21,7,3V2.5C7,1.12,5.88,0,4.5,0z"/>
	</g>
	<path d="M5,4.5C5,4.224,4.776,4,4.5,4S4,4.224,4,4.5V6H2.5l2,2l2-2H5V4.5z"/>
</g>
<g id="Layer_1">
</g>
</svg>
