<?xml version="1.0" encoding="iso-8859-1"?>
<!-- Generator: Adobe Illustrator 18.1.1, SVG Export Plug-In . SVG Version: 6.00 Build 0)  -->
<svg version="1.1" xmlns="http://www.w3.org/2000/svg" xmlns:xlink="http://www.w3.org/1999/xlink" x="0px" y="0px"
	 viewBox="0 0 8 8" style="enable-background:new 0 0 8 8;" xml:space="preserve">
<g id="cog">
	<g>
		<title>Layer 1</title>
		<path d="M3.5,0L3,1.187l-0.277,0.13L1.536,0.818L0.818,1.536l0.499,1.187L1.187,3L0,3.5v1l1.187,0.498l0.13,0.279L0.818,6.464
			l0.718,0.718l1.187-0.499L3,6.813L3.5,8h1L5,6.813l0.277-0.13l1.187,0.499l0.718-0.718L6.683,5.277L6.813,5L8,4.5v-1L6.813,3
			l-0.13-0.277l0.499-1.187L6.464,0.818L5.277,1.317L5,1.187L4.5,0H3.5z M4,2.494c0.828,0,1.496,0.668,1.496,1.496
			S4.828,5.486,4,5.486S2.504,4.818,2.504,3.99S3.172,2.494,4,2.494z"/>
	</g>
</g>
<g id="Layer_1">
</g>
</svg>
