<?xml version="1.0" encoding="iso-8859-1"?>
<!-- Generator: Adobe Illustrator 18.1.1, SVG Export Plug-In . SVG Version: 6.00 Build 0)  -->
<svg version="1.1" xmlns="http://www.w3.org/2000/svg" xmlns:xlink="http://www.w3.org/1999/xlink" x="0px" y="0px"
	 viewBox="0 0 8 8" style="enable-background:new 0 0 8 8;" xml:space="preserve">
<g id="cog">
	<g>
		<title>Layer 1</title>
		<path d="M3.5,0L3.002,1.187c-0.1,0.03-0.19,0.08-0.279,0.13L1.536,0.818L0.818,1.536l0.499,1.187c-0.05,0.1-0.09,0.18-0.13,0.279
			L0,3.5v1l1.187,0.498c0.04,0.1,0.08,0.18,0.13,0.279L0.818,6.464l0.718,0.718l1.187-0.499c0.09,0.04,0.18,0.09,0.279,0.13L3.5,8h1
			l0.498-1.187c0.09-0.04,0.19-0.08,0.279-0.13l1.187,0.499l0.718-0.718L6.683,5.277c0.04-0.09,0.09-0.19,0.13-0.279L8,4.5v-1
			L6.813,3.002c-0.03-0.09-0.08-0.19-0.13-0.279l0.499-1.187L6.464,0.818L5.277,1.317c-0.09-0.04-0.19-0.09-0.279-0.13L4.5,0H3.5z
			 M4,2.494c0.828,0,1.496,0.668,1.496,1.496S4.828,5.486,4,5.486S2.504,4.818,2.504,3.99S3.172,2.494,4,2.494z"/>
	</g>
</g>
<g id="Layer_1">
</g>
</svg>
