<?xml version="1.0" encoding="iso-8859-1"?>
<!-- Generator: Adobe Illustrator 18.1.1, SVG Export Plug-In . SVG Version: 6.00 Build 0)  -->
<svg version="1.1" xmlns="http://www.w3.org/2000/svg" xmlns:xlink="http://www.w3.org/1999/xlink" x="0px" y="0px"
	 viewBox="0 0 8 8" style="enable-background:new 0 0 8 8;" xml:space="preserve">
<g id="command">
	<g>
		<title>Layer 1</title>
		<path d="M1.5,0C0.67,0,0,0.67,0,1.5S0.67,3,1.5,3H2v1H1.5C0.67,4,0,4.67,0,5.5S0.67,7,1.5,7S3,6.33,3,5.5V5h1v0.5
			C4,6.33,4.67,7,5.5,7S7,6.33,7,5.5S6.33,4,5.5,4H5V3h0.5C6.33,3,7,2.33,7,1.5S6.33,0,5.5,0S4,0.67,4,1.5V2H3V1.5
			C3,0.67,2.33,0,1.5,0z M1.5,1C1.78,1,2,1.22,2,1.5V2H1.5C1.22,2,1,1.78,1,1.5S1.22,1,1.5,1z M5.5,1C5.78,1,6,1.22,6,1.5
			S5.78,2,5.5,2H5V1.5C5,1.22,5.22,1,5.5,1z M3,3h1v1H3V3z M1.5,5H2v0.5C2,5.78,1.78,6,1.5,6S1,5.78,1,5.5S1.22,5,1.5,5z M5,5h0.5
			C5.78,5,6,5.22,6,5.5S5.78,6,5.5,6S5,5.78,5,5.5V5z"/>
	</g>
</g>
<g id="Layer_1">
</g>
</svg>
