<?xml version="1.0" encoding="iso-8859-1"?>
<!-- Generator: Adobe Illustrator 18.1.1, SVG Export Plug-In . SVG Version: 6.00 Build 0)  -->
<svg version="1.1" xmlns="http://www.w3.org/2000/svg" xmlns:xlink="http://www.w3.org/1999/xlink" x="0px" y="0px"
	 viewBox="0 0 8 8" style="enable-background:new 0 0 8 8;" xml:space="preserve">
<g id="compass">
	<g>
		<title>Layer 1</title>
		<path d="M4,0C1.8,0,0,1.8,0,4s1.8,4,4,4s4-1.8,4-4S6.2,0,4,0z M4,1c1.66,0,3,1.34,3,3S5.66,7,4,7S1,5.66,1,4S2.34,1,4,1z M6,2L3,3
			L2,6l3-1L6,2z M4,3.5c0.28,0,0.5,0.22,0.5,0.5S4.28,4.5,4,4.5S3.5,4.28,3.5,4S3.72,3.5,4,3.5z"/>
	</g>
</g>
<g id="Layer_1">
</g>
</svg>
