<?xml version="1.0" encoding="iso-8859-1"?>
<!-- Generator: Adobe Illustrator 18.1.1, SVG Export Plug-In . SVG Version: 6.00 Build 0)  -->
<svg version="1.1" xmlns="http://www.w3.org/2000/svg" xmlns:xlink="http://www.w3.org/1999/xlink" x="0px" y="0px"
	 viewBox="0 0 8 8" style="enable-background:new 0 0 8 8;" xml:space="preserve">
<g id="dashboard">
	<g>
		<title>Layer 1</title>
		<path d="M4,0C1.8,0,0,1.8,0,4s1.8,4,4,4s4-1.8,4-4S6.2,0,4,0z M4,1c1.66,0,3,1.34,3,3S5.66,7,4,7S1,5.66,1,4S2.34,1,4,1z M4,2
			C3.72,2,3.5,2.22,3.5,2.5S3.72,3,4,3s0.5-0.22,0.5-0.5S4.28,2,4,2z M2.34,3C2.077,3.084,1.932,3.366,2.017,3.629
			C2.043,3.709,2.088,3.782,2.15,3.84l0.91,0.91C3.04,4.83,3,4.91,3,5c0,0.55,0.45,1,1,1s1-0.45,1-1S4.55,4,4,4
			C3.91,4,3.83,4.04,3.75,4.06L2.84,3.15C2.729,3.027,2.564,2.967,2.4,2.99c-0.02-0.001-0.04-0.001-0.06,0L2.34,3z M5.5,3
			C5.22,3,5,3.22,5,3.5S5.22,4,5.5,4S6,3.78,6,3.5S5.78,3,5.5,3z"/>
	</g>
</g>
<g id="Layer_1">
</g>
</svg>
