<?xml version="1.0" encoding="iso-8859-1"?>
<!-- Generator: Adobe Illustrator 18.1.1, SVG Export Plug-In . SVG Version: 6.00 Build 0)  -->
<svg version="1.1" xmlns="http://www.w3.org/2000/svg" xmlns:xlink="http://www.w3.org/1999/xlink" x="0px" y="0px"
	 viewBox="0 0 8 8" style="enable-background:new 0 0 8 8;" xml:space="preserve">
<g id="dollar">
	<g>
		<title>Layer 1</title>
		<path d="M2.257,0.999c-0.679,0-1.248,0.569-1.248,1.248v0.499c0,0.679,0.439,1.238,1.088,1.408l2.555,0.659
			C4.792,4.854,5,5.104,5,5.253c0,0,0,0.167,0,0.373C5,5.833,4.776,6,4.5,6l-2,0C2.224,6,2,5.776,2,5.5V5H1v1.002
			c0,0.34,0.2,0.629,0.439,0.779c0.23,0.16,0.519,0.22,0.808,0.22L3,7v1h1V7l0.743,0.001c0.689,0,1.248-0.559,1.248-1.248V5.253
			c0-0.679-0.439-1.238-1.088-1.408L2.347,3.186c-0.14-0.04-0.339-0.29-0.339-0.439V2.247c0-0.14,0.11-0.25,0.25-0.25h2.495
			c0.11,0,0.21,0.04,0.25,0.06v0.939H6V1.998c0-0.34-0.2-0.629-0.439-0.779c-0.23-0.16-0.519-0.22-0.808-0.22H4.004L4,0L3,0
			l0.006,0.999H2.257z"/>
	</g>
</g>
<g id="Layer_1">
</g>
</svg>
