<?xml version="1.0" encoding="iso-8859-1"?>
<!-- Generator: Adobe Illustrator 18.1.1, SVG Export Plug-In . SVG Version: 6.00 Build 0)  -->
<svg version="1.1" xmlns="http://www.w3.org/2000/svg" xmlns:xlink="http://www.w3.org/1999/xlink" x="0px" y="0px"
	 viewBox="0 0 8 8" style="enable-background:new 0 0 8 8;" xml:space="preserve">
<g id="droplet">
	<g>
		<title>Layer 1</title>
		<path d="M4,0L3.66,0.331C3.55,0.438,1,2.949,1,5.08C1,6.686,2.35,8,4,8s3-1.314,3-2.92c0-2.122-2.55-4.642-2.66-4.749L4,0z
			 M2.5,4.594C2.78,4.594,3,4.808,3,5.08c0,0.535,0.45,0.973,1,0.973c0.28,0,0.5,0.214,0.5,0.487S4.28,7.027,4,7.027
			c-1.1,0-2-0.876-2-1.946C2,4.808,2.22,4.594,2.5,4.594z"/>
	</g>
</g>
<g id="Layer_1">
</g>
</svg>
