<?xml version="1.0" encoding="iso-8859-1"?>
<!-- Generator: Adobe Illustrator 18.1.1, SVG Export Plug-In . SVG Version: 6.00 Build 0)  -->
<svg version="1.1" xmlns="http://www.w3.org/2000/svg" xmlns:xlink="http://www.w3.org/1999/xlink" x="0px" y="0px"
	 viewBox="0 0 8 8" style="enable-background:new 0 0 8 8;" xml:space="preserve">
<g id="euro">
	<g>
		<title>Layer 1</title>
		<path d="M5.993,0C4.135,0,2.597,1.28,2.157,3H0.5L0,4h2.007c0,0.35,0.07,0.68,0.16,1H0.5L0,6h2.567c0.699,1.19,1.968,2,3.436,2
			C6.732,8,7.411,7.79,8,7.44V6.22C7.471,6.7,6.782,7,6.002,7C5.114,7,4.335,6.61,3.785,6H5.5L6,5H3.196
			c-0.11-0.32-0.19-0.64-0.19-1H6l0.502-1H3.196c0.409-1.16,1.508-2,2.806-2C6.662,1,7.511,1.15,8,1.5v-1
			C7.431,0.19,6.702,0,6.002,0H5.993z"/>
	</g>
</g>
<g id="Layer_1">
</g>
</svg>
