<?xml version="1.0" encoding="iso-8859-1"?>
<!-- Generator: Adobe Illustrator 18.1.1, SVG Export Plug-In . SVG Version: 6.00 Build 0)  -->
<svg version="1.1" xmlns="http://www.w3.org/2000/svg" xmlns:xlink="http://www.w3.org/1999/xlink" x="0px" y="0px"
	 viewBox="0 0 8 8" style="enable-background:new 0 0 8 8;" xml:space="preserve">
<g id="eye">
	<g>
		<title>Layer 1</title>
		<path d="M4.03,1C1.5,1,0,4,0,4s1.5,3,4.03,3C6.5,7,8,4,8,4S6.5,1,4.03,1z M4,2c1.11,0,2,0.9,2,2c0,1.11-0.89,2-2,2
			C2.9,6,2,5.11,2,4C2,2.9,2.9,2,4,2z M4,3C3.45,3,3,3.45,3,4s0.45,1,1,1s1-0.45,1-1c0-0.1-0.04-0.19-0.06-0.28
			C4.86,3.88,4.7,4,4.5,4C4.22,4,4,3.78,4,3.5c0-0.2,0.12-0.36,0.28-0.44C4.19,3.03,4.1,3,4,3z"/>
	</g>
</g>
<g id="Layer_1">
</g>
</svg>
