<?xml version="1.0" encoding="iso-8859-1"?>
<!-- Generator: Adobe Illustrator 18.1.1, SVG Export Plug-In . SVG Version: 6.00 Build 0)  -->
<svg version="1.1" xmlns="http://www.w3.org/2000/svg" xmlns:xlink="http://www.w3.org/1999/xlink" x="0px" y="0px"
	 viewBox="0 0 8 8" style="enable-background:new 0 0 8 8;" xml:space="preserve">
<g id="eyedropper">
	<g>
		<title>Layer 1</title>
		<path d="M3.299,0.019C3.037,0.103,2.893,0.384,2.977,0.646c0.026,0.08,0.071,0.153,0.133,0.21l0.628,0.628L0.159,5.13L0,5.29V8
			h2.681l0.159-0.159l3.648-3.647l0.628,0.658c0.175,0.212,0.489,0.242,0.702,0.067C8.031,4.744,8.061,4.43,7.886,4.217
			C7.87,4.198,7.853,4.18,7.835,4.164L6.898,3.227L7.556,2.57c0.588-0.578,0.588-1.534,0-2.122c-0.568-0.568-1.555-0.568-2.123,0
			L4.775,1.105L3.838,0.169C3.721,0.036,3.543-0.024,3.369,0.009c-0.02-0.001-0.04-0.001-0.06,0L3.299,0.019z M4.466,2.191
			l1.306,1.305l-3.15,3.149L1.346,5.34L4.466,2.191z"/>
	</g>
</g>
<g id="Layer_1">
</g>
</svg>
