<?xml version="1.0" encoding="iso-8859-1"?>
<!-- Generator: Adobe Illustrator 18.1.1, SVG Export Plug-In . SVG Version: 6.00 Build 0)  -->
<svg version="1.1" xmlns="http://www.w3.org/2000/svg" xmlns:xlink="http://www.w3.org/1999/xlink" x="0px" y="0px"
	 viewBox="0 0 8 8" style="enable-background:new 0 0 8 8;" xml:space="preserve">
<g id="fork">
	<g>
		<title>Layer 1</title>
		<path d="M1.5,0C0.67,0,0,0.669,0,1.498c0,0.659,0.41,1.199,1,1.408v2.187c-0.59,0.2-1,0.749-1,1.408C0,7.331,0.67,8,1.5,8
			S3,7.331,3,6.502c0-0.599-0.34-1.099-0.84-1.338c0.09-0.09,0.21-0.16,0.34-0.16h2c0.82,0,1.5-0.679,1.5-1.498V2.916
			c0.59-0.2,1-0.749,1-1.408C7,0.679,6.33,0.01,5.5,0.01S4,0.679,4,1.508c0,0.659,0.41,1.199,1,1.408v0.589
			c0,0.28-0.22,0.499-0.5,0.499h-2c-0.17,0-0.35,0.04-0.5,0.09V2.906c0.59-0.2,1-0.749,1-1.408C3,0.669,2.33,0,1.5,0z"/>
	</g>
</g>
<g id="Layer_1">
</g>
</svg>
