<?xml version="1.0" encoding="iso-8859-1"?>
<!-- Generator: Adobe Illustrator 18.1.1, SVG Export Plug-In . SVG Version: 6.00 Build 0)  -->
<svg version="1.1" xmlns="http://www.w3.org/2000/svg" xmlns:xlink="http://www.w3.org/1999/xlink" x="0px" y="0px"
	 viewBox="0 0 8 8" style="enable-background:new 0 0 8 8;" xml:space="preserve">
<g id="globe">
	<g>
		<g>
			<title>Layer 1</title>
			<path id="svg_1" d="M4,0C1.79,0,0,1.79,0,4s1.79,4,4,4s4-1.79,4-4S6.21,0,4,0z M4,1c0.33,0,0.64,0.09,0.94,0.19
				c-0.21,0.2-0.45,0.38-0.41,0.56s0.69,0.13,0.69,0.5c0,0.27-0.42,0.35-0.13,0.66c0.35,0.35-0.64,0.98-0.66,1.44
				C4.4,5.18,5.27,5.32,5.96,5.32c0.42,0,0.53,0.2,0.5,0.44C5.92,6.53,5,7.01,3.99,7.01c-0.38,0-0.73-0.09-1.06-0.22
				C3.15,6.35,2.65,5.48,2.18,5.2c-0.23-0.23-0.72-0.14-1-0.25C1.09,4.68,1,4.41,0.99,4.11c0.03-0.05,0.08-0.09,0.16-0.09
				c0.19,0,0.45,0.38,0.59,0.34C1.92,4.32,1,3.05,1.43,2.8c0.2-0.12,0.6,0.39,0.47-0.16C1.78,2.13,2.26,2.36,2.56,2.23
				c0.26-0.11,0.45-0.41,0.13-0.59c-0.06-0.03-0.13-0.1-0.22-0.19C2.92,1.18,3.44,1.01,4,1.01V1z M6.31,2.09
				c0.18,0.22,0.32,0.46,0.44,0.72c0,0.01,0,0.02,0,0.03C6.71,2.91,6.64,2.95,6.53,3.06C6.25,3.34,6.21,2.85,6.09,2.75
				c-0.13-0.12-0.6,0.02-0.66-0.13C5.36,2.44,5.93,2.2,6.31,2.09z"/>
		</g>
	</g>
</g>
<g id="Layer_1">
</g>
</svg>
