<?xml version="1.0" encoding="iso-8859-1"?>
<!-- Generator: Adobe Illustrator 18.1.1, SVG Export Plug-In . SVG Version: 6.00 Build 0)  -->
<svg version="1.1" xmlns="http://www.w3.org/2000/svg" xmlns:xlink="http://www.w3.org/1999/xlink" x="0px" y="0px"
	 viewBox="0 0 8 8" style="enable-background:new 0 0 8 8;" xml:space="preserve">
<g id="grid-four-up">
	<g>
		<path d="M0,0v1h1V0H0z M2,0v1h1V0H2z M4,0v1h1V0H4z M6,0v1h1V0H6z M0,2v1h1V2H0z M2,2v1h1V2H2z M4,2v1h1V2H4z M6,2v1h1V2H6z M0,4
			v1h1V4H0z M2,4v1h1V4H2z M4,4v1h1V4H4z M6,4v1h1V4H6z M0,6v1h1V6H0z M2,6v1h1V6H2z M4,6v1h1V6H4z M6,6v1h1V6H6z"/>
	</g>
</g>
<g id="Layer_1">
</g>
</svg>
