<?xml version="1.0" encoding="iso-8859-1"?>
<!-- Generator: Adobe Illustrator 18.1.1, SVG Export Plug-In . SVG Version: 6.00 Build 0)  -->
<svg version="1.1" xmlns="http://www.w3.org/2000/svg" xmlns:xlink="http://www.w3.org/1999/xlink" x="0px" y="0px"
	 viewBox="0 0 8 8" style="enable-background:new 0 0 8 8;" xml:space="preserve">
<g id="hard-drive">
	<g>
		<g>
			<title>Layer 1</title>
			<path id="svg_1_125_" d="M0.001,0.501L0.01,3.497c0.001,0.275,0.224,0.498,0.499,0.498h5.991C6.776,3.995,7,3.771,7,3.496V0.5
				C7,0.224,6.776,0,6.5,0H0.501C0.225,0,0.001,0.225,0.001,0.501z M0,4.904V7.5C0,7.776,0.224,8,0.5,8h6C6.776,8,7,7.776,7,7.5
				V4.904c-0.16,0.06-0.32,0.09-0.499,0.09H0.509c-0.18,0-0.34-0.04-0.499-0.09L0,4.904z M5.492,5.993
				c0.28,0,0.499,0.22,0.499,0.499s-0.22,0.499-0.499,0.499c-0.28,0-0.499-0.22-0.499-0.499S5.213,5.993,5.492,5.993z"/>
		</g>
	</g>
</g>
<g id="Layer_1">
</g>
</svg>
