<?xml version="1.0" encoding="iso-8859-1"?>
<!-- Generator: Adobe Illustrator 18.1.1, SVG Export Plug-In . SVG Version: 6.00 Build 0)  -->
<svg version="1.1" xmlns="http://www.w3.org/2000/svg" xmlns:xlink="http://www.w3.org/1999/xlink" x="0px" y="0px"
	 viewBox="0 0 8 8" style="enable-background:new 0 0 8 8;" xml:space="preserve">
<g id="headphones">
	<g>
		<g>
			<title>Layer 1</title>
			<path id="svg_1_121_" d="M4,0C2.35,0,1,1.35,1,3v1H0.5C0.224,4,0,4.224,0,4.5v2C0,6.776,0.224,7,0.5,7h1C1.776,7,2,6.776,2,6.5V3
				c0-1.11,0.89-2,2-2s2,0.89,2,2v3.5C6,6.776,6.224,7,6.5,7h1C7.776,7,8,6.776,8,6.5v-2C8,4.224,7.776,4,7.5,4H7V3
				C7,1.35,5.65,0,4,0z"/>
		</g>
	</g>
</g>
<g id="Layer_1">
</g>
</svg>
