<?xml version="1.0" encoding="iso-8859-1"?>
<!-- Generator: Adobe Illustrator 18.1.1, SVG Export Plug-In . SVG Version: 6.00 Build 0)  -->
<svg version="1.1" xmlns="http://www.w3.org/2000/svg" xmlns:xlink="http://www.w3.org/1999/xlink" x="0px" y="0px"
	 viewBox="0 0 8 8" style="enable-background:new 0 0 8 8;" xml:space="preserve">
<g id="header">
	<g>
		<g>
			<title>Layer 1</title>
			<path id="svg_1_2_" d="M0,0v1h0.5C0.78,1,1,1.22,1,1.5v4C1,5.78,0.78,6,0.5,6H0v1h3V6H2.5C2.22,6,2,5.78,2,5.5V4h3v1.5
				C5,5.78,4.78,6,4.5,6H4v1h3V6H6.5C6.22,6,6,5.78,6,5.5v-4C6,1.22,6.22,1,6.5,1H7V0H4v1h0.5C4.78,1,5,1.22,5,1.5V3H2V1.5
				C2,1.22,2.22,1,2.5,1H3V0H0z"/>
		</g>
	</g>
</g>
<g id="Layer_1">
</g>
</svg>
