<?xml version="1.0" encoding="iso-8859-1"?>
<!-- Generator: Adobe Illustrator 18.1.1, SVG Export Plug-In . SVG Version: 6.00 Build 0)  -->
<svg version="1.1" xmlns="http://www.w3.org/2000/svg" xmlns:xlink="http://www.w3.org/1999/xlink" x="0px" y="0px"
	 viewBox="0 0 8 8" style="enable-background:new 0 0 8 8;" xml:space="preserve">
<g id="heart">
	<g>
		<g>
			<title>Layer 1</title>
			<path id="svg_1_4_" d="M2,0C1.45,0,0.96,0.236,0.59,0.606C0.23,0.975,0,1.478,0,2.053C0,2.617,0.23,3.12,0.59,3.5L4,7l3.41-3.5
				C7.77,3.13,8,2.628,8,2.053c0-0.565-0.23-1.067-0.59-1.447C7.05,0.236,6.56,0,6,0C5.45,0,4.96,0.236,4.59,0.606
				C4.23,0.975,4,1.478,4,2.053c0-0.565-0.23-1.067-0.59-1.447C3.05,0.236,2.56,0,2,0z"/>
		</g>
	</g>
</g>
<g id="Layer_1">
</g>
</svg>
