<?xml version="1.0" encoding="iso-8859-1"?>
<!-- Generator: Adobe Illustrator 18.1.1, SVG Export Plug-In . SVG Version: 6.00 Build 0)  -->
<svg version="1.1" xmlns="http://www.w3.org/2000/svg" xmlns:xlink="http://www.w3.org/1999/xlink" x="0px" y="0px"
	 viewBox="0 0 8 8" style="enable-background:new 0 0 8 8;" xml:space="preserve">
<g id="infinity">
	<g>
		<g>
			<title>Layer 1</title>
			<path id="svg_1_6_" d="M2,2C0.69,2,0,3.01,0,4s0.69,2,2,2c0.79,0,1.42-0.56,2-1.22C4.58,5.44,5.19,6,6,6c1.31,0,2-1.01,2-2
				S7.31,2,6,2C5.19,2,4.58,2.56,4,3.22C3.42,2.56,2.79,2,2,2z M2,3c0.42,0,0.88,0.47,1.34,1C2.88,4.53,2.42,5,2,5
				C1.26,5,1,4.46,1,4S1.26,3,2,3z M6,3c0.74,0,1,0.54,1,1S6.74,5,6,5C5.57,5,5.11,4.53,4.66,4C5.12,3.47,5.57,3,6,3z"/>
		</g>
	</g>
</g>
<g id="Layer_1">
</g>
</svg>
