<?xml version="1.0" encoding="iso-8859-1"?>
<!-- Generator: Adobe Illustrator 18.1.1, SVG Export Plug-In . SVG Version: 6.00 Build 0)  -->
<svg version="1.1" xmlns="http://www.w3.org/2000/svg" xmlns:xlink="http://www.w3.org/1999/xlink" x="0px" y="0px"
	 viewBox="0 0 8 8" style="enable-background:new 0 0 8 8;" xml:space="preserve">
<g id="info">
	<g>
		<g>
			<title>Layer 1</title>
			<path id="svg_1_7_" d="M5,0C4.45,0,4,0.45,4,1s0.45,1,1,1s1-0.45,1-1S5.55,0,5,0z M3.5,2.5C2.67,2.5,2,3.17,2,4h1
				c0-0.28,0.22-0.5,0.5-0.5S4,3.72,4,4S3,5.64,3,6.5S3.67,8,4.5,8S6,7.33,6,6.5H5C5,6.78,4.78,7,4.5,7S4,6.78,4,6.5
				C4,6.14,5,4.66,5,4C5,3.19,4.33,2.5,3.5,2.5z"/>
		</g>
	</g>
</g>
<g id="Layer_1">
</g>
</svg>
