<?xml version="1.0" encoding="iso-8859-1"?>
<!-- Generator: Adobe Illustrator 18.1.1, SVG Export Plug-In . SVG Version: 6.00 Build 0)  -->
<svg version="1.1" xmlns="http://www.w3.org/2000/svg" xmlns:xlink="http://www.w3.org/1999/xlink" x="0px" y="0px"
	 viewBox="0 0 8 8" style="enable-background:new 0 0 8 8;" xml:space="preserve">
<g id="key">
	<g>
		<g>
			<title>Layer 1</title>
			<path id="svg_1_112_" d="M5.5,0C4.12,0,3,1.12,3,2.5c0,0.16,0,0.32,0.03,0.47L0,6v2h3V6h2V5l0.03-0.03C5.18,5,5.34,5,5.5,5
				C6.88,5,8,3.88,8,2.5S6.88,0,5.5,0z M6,1c0.55,0,1,0.45,1,1S6.55,3,6,3S5,2.55,5,2S5.45,1,6,1z"/>
		</g>
	</g>
</g>
<g id="Layer_1">
</g>
</svg>
