<?xml version="1.0" encoding="iso-8859-1"?>
<!-- Generator: Adobe Illustrator 18.1.1, SVG Export Plug-In . SVG Version: 6.00 Build 0)  -->
<svg version="1.1" xmlns="http://www.w3.org/2000/svg" xmlns:xlink="http://www.w3.org/1999/xlink" x="0px" y="0px"
	 viewBox="0 0 8 8" style="enable-background:new 0 0 8 8;" xml:space="preserve">
<g id="lightbulb">
	<g>
		<path d="M4,7H3C2.724,7,2.5,7.224,2.5,7.5C2.5,7.776,2.724,8,3,8h1c0.276,0,0.5-0.224,0.5-0.5C4.5,7.224,4.276,7,4,7z"/>
		<path d="M5.5,3.5c-0.081,0-0.154,0.023-0.221,0.057L5.277,3.552l-3,1.5l0.002,0.005l0,0C2.205,5.094,2.146,5.151,2.098,5.218
			C2.089,5.231,2.08,5.243,2.072,5.257C2.03,5.33,2,5.41,2,5.5C2,5.776,2.224,6,2.5,6h2C4.776,6,5,5.776,5,5.5
			c0-0.246-0.181-0.442-0.416-0.483l1.139-0.57L5.721,4.443C5.885,4.361,6,4.196,6,4C6,3.724,5.776,3.5,5.5,3.5z"/>
		<path d="M5.721,2.443C5.885,2.361,6,2.196,6,2c0-0.276-0.224-0.5-0.5-0.5c-0.081,0-0.154,0.023-0.221,0.057L5.277,1.552l-4,2
			l0.002,0.005C1.115,3.639,1,3.804,1,4c0,0.276,0.224,0.5,0.5,0.5c0.081,0,0.154-0.023,0.221-0.057l0.002,0.005l4-2L5.721,2.443z"
			/>
		<path d="M1.5,2.5c0.081,0,0.154-0.023,0.221-0.057l0.002,0.005l3-1.5L4.721,0.943C4.885,0.861,5,0.696,5,0.5
			C5,0.224,4.776,0,4.5,0C4.419,0,4.346,0.023,4.279,0.057L4.277,0.052l-3,1.5l0.002,0.005C1.115,1.639,1,1.804,1,2
			C1,2.276,1.224,2.5,1.5,2.5z"/>
	</g>
</g>
<g id="Layer_1">
</g>
</svg>
