<?xml version="1.0" encoding="iso-8859-1"?>
<!-- Generator: Adobe Illustrator 18.1.1, SVG Export Plug-In . SVG Version: 6.00 Build 0)  -->
<svg version="1.1" xmlns="http://www.w3.org/2000/svg" xmlns:xlink="http://www.w3.org/1999/xlink" x="0px" y="0px"
	 viewBox="0 0 8 8" style="enable-background:new 0 0 8 8;" xml:space="preserve">
<g id="lightbulb">
	<g>
		<g>
			<title>Layer 1</title>
			<path id="svg_1_11_" d="M4.437,0.008c-0.045,0.014-0.088,0.034-0.128,0.06L1.355,1.565C1.094,1.642,0.944,1.919,1.02,2.184
				S1.369,2.6,1.63,2.523c0.057-0.017,0.11-0.044,0.158-0.08l2.954-1.497c0.243-0.123,0.343-0.422,0.222-0.669
				C4.866,0.079,4.652-0.031,4.437,0.008z M5.422,1.505c-0.045,0.014-0.088,0.034-0.128,0.06L1.355,3.561
				C1.094,3.639,0.944,3.916,1.02,4.18S1.369,4.597,1.63,4.52c0.057-0.017,0.11-0.044,0.158-0.08l3.939-1.996
				C5.97,2.321,6.069,2.021,5.948,1.774C5.851,1.576,5.637,1.466,5.422,1.505z M5.422,3.502c-0.045,0.014-0.088,0.034-0.128,0.06
				L2.339,5.059C2.1,5.189,2.01,5.492,2.139,5.735c0.083,0.156,0.242,0.256,0.417,0.262h1.969c0.272,0.044,0.528-0.144,0.571-0.419
				C5.14,5.302,4.955,5.043,4.683,4.999L5.727,4.44C5.97,4.317,6.069,4.018,5.948,3.771C5.851,3.572,5.637,3.463,5.422,3.502z
				 M2.901,6.995C2.629,7.039,2.444,7.299,2.487,7.574C2.531,7.85,2.786,8.038,3.058,7.994h0.985c0.272,0,0.492-0.223,0.492-0.499
				c0-0.276-0.22-0.499-0.492-0.499H3.058c-0.029-0.003-0.059-0.003-0.089,0c-0.02-0.001-0.039-0.001-0.059,0H2.901z"/>
		</g>
	</g>
</g>
<g id="Layer_1">
</g>
</svg>
