<?xml version="1.0" encoding="iso-8859-1"?>
<!-- Generator: Adobe Illustrator 18.1.1, SVG Export Plug-In . SVG Version: 6.00 Build 0)  -->
<svg version="1.1" xmlns="http://www.w3.org/2000/svg" xmlns:xlink="http://www.w3.org/1999/xlink" x="0px" y="0px"
	 viewBox="0 0 8 8" style="enable-background:new 0 0 8 8;" xml:space="preserve">
<g id="link-intact">
	<g>
		<g>
			<title>Layer 1</title>
			<path id="svg_1_13_" d="M5.88,0c-0.18,0.01-0.361,0.03-0.531,0.09c-0.271,0.1-0.531,0.251-0.752,0.472
				C4.363,0.711,4.293,1.021,4.442,1.256s0.458,0.304,0.692,0.155c0.062-0.04,0.115-0.093,0.155-0.155
				c0.11-0.11,0.241-0.171,0.381-0.221c0.351-0.121,0.782-0.07,1.063,0.221c0.391,0.392,0.391,1.045,0,1.446L5.228,4.209
				C4.787,4.651,4.426,4.691,4.165,4.681C3.905,4.671,3.754,4.55,3.754,4.55C3.511,4.411,3.201,4.497,3.063,4.741
				C2.924,4.985,3.01,5.295,3.253,5.434c0,0,0.341,0.221,0.842,0.251c0.501,0.03,1.203-0.161,1.815-0.783l1.504-1.507
				c0.782-0.783,0.782-2.049,0-2.822C7.133,0.291,6.802,0.121,6.441,0.04C6.261,0,6.06,0,5.88,0.01L5.88,0z M3.875,2.33
				C3.373,2.31,2.682,2.481,2.09,3.084L0.586,4.59c-0.782,0.783-0.782,2.049,0,2.822C1.148,7.975,1.95,8.136,2.652,7.885
				c0.271-0.1,0.531-0.251,0.752-0.472C3.637,7.264,3.707,6.954,3.558,6.72C3.41,6.485,3.101,6.416,2.867,6.564
				C2.804,6.604,2.751,6.657,2.712,6.72C2.602,6.83,2.471,6.89,2.331,6.941C1.98,7.061,1.549,7.011,1.268,6.72
				c-0.391-0.392-0.391-1.045,0-1.446l1.504-1.507c0.401-0.402,0.752-0.452,1.033-0.442s0.471,0.09,0.471,0.09
				c0.221,0.166,0.536,0.121,0.702-0.1c0.166-0.222,0.121-0.537-0.1-0.703c-0.048-0.036-0.103-0.063-0.16-0.08
				c0,0-0.341-0.201-0.842-0.221L3.875,2.33z"/>
		</g>
	</g>
</g>
<g id="Layer_1">
</g>
</svg>
