<?xml version="1.0" encoding="iso-8859-1"?>
<!-- Generator: Adobe Illustrator 18.1.1, SVG Export Plug-In . SVG Version: 6.00 Build 0)  -->
<svg version="1.1" xmlns="http://www.w3.org/2000/svg" xmlns:xlink="http://www.w3.org/1999/xlink" x="0px" y="0px"
	 viewBox="0 0 8 8" style="enable-background:new 0 0 8 8;" xml:space="preserve">
<g id="link-broken">
	<g>
		<g>
			<title>Layer 1</title>
			<path id="svg_1_107_" d="M2,0v1H1v1h2V0H2z M5.872,0.03c-0.18,0.01-0.36,0.03-0.531,0.09c-0.27,0.1-0.531,0.25-0.751,0.47
				L4.15,1.03C3.917,1.178,3.847,1.487,3.995,1.72s0.457,0.302,0.691,0.155C4.749,1.835,4.802,1.782,4.841,1.72l0.441-0.44
				c0.11-0.11,0.24-0.17,0.38-0.22c0.35-0.12,0.781-0.07,1.061,0.22c0.39,0.39,0.39,1.04,0,1.44l-1.502,1.5
				C4.988,4.368,4.919,4.677,5.067,4.91c0.148,0.233,0.457,0.302,0.691,0.155C5.82,5.025,5.873,4.972,5.912,4.91l1.502-1.5
				c0.781-0.78,0.781-2.04,0-2.81c-0.28-0.28-0.611-0.45-0.971-0.53c-0.18-0.04-0.38-0.04-0.561-0.03L5.872,0.03z M2.278,2.94
				C2.202,2.977,2.137,3.032,2.088,3.1L0.586,4.6c-0.781,0.78-0.781,2.04,0,2.81c0.561,0.56,1.362,0.72,2.063,0.47
				c0.27-0.1,0.531-0.25,0.751-0.47L3.84,6.97c0.234-0.148,0.303-0.457,0.155-0.69C3.847,6.047,3.537,5.978,3.304,6.125
				C3.241,6.165,3.188,6.218,3.149,6.28L2.708,6.72c-0.11,0.11-0.24,0.17-0.38,0.22c-0.35,0.12-0.781,0.07-1.061-0.22
				c-0.39-0.39-0.39-1.04,0-1.44l1.502-1.5C2.96,3.581,2.954,3.264,2.754,3.073C2.641,2.964,2.483,2.915,2.328,2.94
				c-0.02-0.001-0.04-0.001-0.06,0L2.278,2.94z M5,6v2h1V7h1V6H5z"/>
		</g>
	</g>
</g>
<g id="Layer_1">
</g>
</svg>
