<?xml version="1.0" encoding="iso-8859-1"?>
<!-- Generator: Adobe Illustrator 18.1.1, SVG Export Plug-In . SVG Version: 6.00 Build 0)  -->
<svg version="1.1" xmlns="http://www.w3.org/2000/svg" xmlns:xlink="http://www.w3.org/1999/xlink" x="0px" y="0px"
	 viewBox="0 0 8 8" style="enable-background:new 0 0 8 8;" xml:space="preserve">
<g id="list">
	<g>
		<g>
			<title>Layer 1</title>
			<path id="svg_1_14_" d="M0.5,0C0.22,0,0,0.22,0,0.5S0.22,1,0.5,1S1,0.78,1,0.5S0.78,0,0.5,0z M2,0v1h6V0H2z M0.5,2
				C0.22,2,0,2.22,0,2.5S0.22,3,0.5,3S1,2.78,1,2.5S0.78,2,0.5,2z M2,2v1h6V2H2z M0.5,4C0.22,4,0,4.22,0,4.5S0.22,5,0.5,5
				S1,4.78,1,4.5S0.78,4,0.5,4z M2,4v1h6V4H2z M0.5,6C0.22,6,0,6.22,0,6.5S0.22,7,0.5,7S1,6.78,1,6.5S0.78,6,0.5,6z M2,6v1h6V6H2z"
				/>
		</g>
	</g>
</g>
<g id="Layer_1">
</g>
</svg>
