<?xml version="1.0" encoding="iso-8859-1"?>
<!-- Generator: Adobe Illustrator 18.1.1, SVG Export Plug-In . SVG Version: 6.00 Build 0)  -->
<svg version="1.1" xmlns="http://www.w3.org/2000/svg" xmlns:xlink="http://www.w3.org/1999/xlink" x="0px" y="0px"
	 viewBox="0 0 8 8" style="enable-background:new 0 0 8 8;" xml:space="preserve">
<g id="map">
	<title>Layer 1</title>
	<g>
		<path d="M3.495,2C2.666,2,1.997,2.667,1.997,3.496C1.997,4.494,3.5,6,3.5,6s1.492-1.506,1.492-2.504C4.992,2.667,4.323,2,3.495,2z
			 M3.495,3.995c-0.28,0-0.499-0.22-0.499-0.499s0.22-0.499,0.499-0.499c0.28,0,0.499,0.22,0.499,0.499S3.774,3.995,3.495,3.995z"/>
		<path d="M0,0v0.01V8h8V0H0z M7,7H1V1l6-0.001V5c0,0-1.219,0-1.5,0C5.224,5,5,5.224,5,5.5C5,5.776,5.224,6,5.5,6H7V7z"/>
	</g>
</g>
<g id="Layer_1">
</g>
</svg>
