<?xml version="1.0" encoding="iso-8859-1"?>
<!-- Generator: Adobe Illustrator 18.1.1, SVG Export Plug-In . SVG Version: 6.00 Build 0)  -->
<svg version="1.1" xmlns="http://www.w3.org/2000/svg" xmlns:xlink="http://www.w3.org/1999/xlink" x="0px" y="0px"
	 viewBox="0 0 8 8" style="enable-background:new 0 0 8 8;" xml:space="preserve">
<g id="microphone">
	<g>
		<g>
			<title>Layer 1</title>
			<path id="svg_1_20_" d="M3.896,0.004c-0.044,0.007-0.087,0.017-0.13,0.03C3.301,0.138,2.976,0.555,2.987,1.03v1.992
				c0,0.55,0.446,0.996,0.998,0.996c0.551,0,0.998-0.445,0.999-0.995V3.022V1.03c0.019-0.55-0.413-1.01-0.964-1.029
				C3.978-0.001,3.937,0,3.896,0.004z M1.34,2.025C1.128,2.097,0.989,2.3,1.001,2.523v0.498c0,1.474,1.088,2.679,2.496,2.928v1.055
				H2.997C2.448,7.004,1.999,7.452,1.999,8h4.003c0-0.548-0.449-0.996-0.998-0.996H4.504V5.949C5.912,5.71,7,4.495,7,3.021V2.523
				c0-0.275-0.223-0.498-0.499-0.498c-0.276,0-0.499,0.223-0.499,0.498v0.498c0,1.105-0.888,1.992-1.996,1.992
				S2.009,4.127,2.009,3.021V2.523c0.005-0.275-0.215-0.501-0.491-0.506C1.485,2.017,1.452,2.02,1.42,2.025
				c-0.02-0.001-0.04-0.001-0.06,0H1.34z"/>
		</g>
	</g>
</g>
<g id="Layer_1">
</g>
</svg>
