<?xml version="1.0" encoding="iso-8859-1"?>
<!-- Generator: Adobe Illustrator 18.1.1, SVG Export Plug-In . SVG Version: 6.00 Build 0)  -->
<svg version="1.1" xmlns="http://www.w3.org/2000/svg" xmlns:xlink="http://www.w3.org/1999/xlink" x="0px" y="0px"
	 viewBox="0 0 8 8" style="enable-background:new 0 0 8 8;" xml:space="preserve">
<g id="musical-note">
	<g>
		<g>
			<title>Layer 1</title>
			<path id="svg_1_23_" d="M8,0C3,0,2,1,2,1v4.09C1.85,5.04,1.67,5,1.5,5C0.67,5,0,5.67,0,6.5S0.67,8,1.5,8S3,7.33,3,6.5V2.53
				c0.73-0.23,1.99-0.44,4-0.5v2.06C6.85,4.04,6.67,4,6.5,4C5.67,4,5,4.67,5,5.5S5.67,7,6.5,7S8,6.33,8,5.5V0z"/>
		</g>
	</g>
</g>
<g id="Layer_1">
</g>
</svg>
