<?xml version="1.0" encoding="iso-8859-1"?>
<!-- Generator: Adobe Illustrator 18.1.1, SVG Export Plug-In . SVG Version: 6.00 Build 0)  -->
<svg version="1.1" xmlns="http://www.w3.org/2000/svg" xmlns:xlink="http://www.w3.org/1999/xlink" x="0px" y="0px"
	 viewBox="0 0 8 8" style="enable-background:new 0 0 8 8;" xml:space="preserve">
<g id="paperclip">
	<g>
		<g>
			<title>Layer 1</title>
			<path id="svg_1_82_" d="M5.009,0C4.497,0,3.985,0.21,3.594,0.591L0.805,3.313c-1.073,1.071-1.073,2.803,0,3.884
				c1.073,1.071,2.809,1.071,3.893,0l1.254-1.251L5.259,5.255L4.096,6.386l-0.09,0.13c-0.692,0.691-1.816,0.691-2.508,0
				c-0.682-0.681-0.662-1.782,0-2.472l2.789-2.753c0.391-0.39,1.043-0.39,1.445,0c0.391,0.39,0.371,1.011,0,1.411L3.223,5.175
				c-0.1,0.1-0.271,0.1-0.381,0c-0.1-0.1-0.1-0.27,0-0.38l0.06-0.03l0.913-0.941L3.123,3.133L2.149,4.104
				c-0.482,0.48-0.482,1.271,0,1.752s1.274,0.49,1.756,0l2.508-2.442c0.783-0.781,0.783-2.042,0-2.813
				C6.022,0.21,5.52,0.01,4.999,0.01L5.009,0z"/>
		</g>
	</g>
</g>
<g id="Layer_1">
</g>
</svg>
