<?xml version="1.0" encoding="iso-8859-1"?>
<!-- Generator: Adobe Illustrator 18.1.1, SVG Export Plug-In . SVG Version: 6.00 Build 0)  -->
<svg version="1.1" xmlns="http://www.w3.org/2000/svg" xmlns:xlink="http://www.w3.org/1999/xlink" x="0px" y="0px"
	 viewBox="0 0 8 8" style="enable-background:new 0 0 8 8;" xml:space="preserve">
<g id="people">
	<circle cx="5.5" cy="1.563" r="1.563"/>
	<path d="M3.75,5.125c-0.813,0.625-1.688,0.625-2.5,0C0.438,5.125,0,5.563,0,6.375V8h5V6.375C5,5.563,4.563,5.125,3.75,5.125z"/>
	<circle cx="2.5" cy="3.563" r="1.563"/>
	<path d="M8,4.375c0-0.813-0.438-1.25-1.25-1.25C6.033,3.677,5.266,3.74,4.538,3.317c0.01,0.082,0.025,0.162,0.025,0.246
		c0,0.412-0.124,0.794-0.333,1.116C4.917,4.824,5.359,5.288,5.471,6H8V4.375z"/>
</g>
<g id="Layer_1">
</g>
</svg>
