<?xml version="1.0" encoding="iso-8859-1"?>
<!-- Generator: Adobe Illustrator 18.1.1, SVG Export Plug-In . SVG Version: 6.00 Build 0)  -->
<svg version="1.1" xmlns="http://www.w3.org/2000/svg" xmlns:xlink="http://www.w3.org/1999/xlink" x="0px" y="0px"
	 viewBox="0 0 8 8" style="enable-background:new 0 0 8 8;" xml:space="preserve">
<g id="phone">
	<g>
		<g>
			<title>Layer 1</title>
			<path id="svg_1_79_" d="M6,7.5v-7C6,0.224,5.776,0,5.5,0h-4C1.224,0,1,0.224,1,0.5v7C1,7.776,1.224,8,1.5,8h4
				C5.776,8,6,7.776,6,7.5z M1.998,0.999h2.994v4.994H1.998V0.999z M3.495,6.492c0.279,0,0.499,0.22,0.499,0.499
				c0,0.28-0.22,0.499-0.499,0.499s-0.499-0.22-0.499-0.499C2.996,6.712,3.216,6.492,3.495,6.492z"/>
		</g>
	</g>
</g>
<g id="Layer_1">
</g>
</svg>
