<?xml version="1.0" encoding="iso-8859-1"?>
<!-- Generator: Adobe Illustrator 18.1.1, SVG Export Plug-In . SVG Version: 6.00 Build 0)  -->
<svg version="1.1" xmlns="http://www.w3.org/2000/svg" xmlns:xlink="http://www.w3.org/1999/xlink" x="0px" y="0px"
	 viewBox="0 0 8 8" style="enable-background:new 0 0 8 8;" xml:space="preserve">
<g id="pie-chart">
	<g>
		<g>
			<title>Layer 1</title>
			<path id="svg_1_27_" d="M3.5,0C2.53,0,1.66,0.4,1.03,1.03L4,4V0.03C3.84,0.01,3.67,0,3.5,0z M5,1.06v3.41L2.28,7.19
				C2.89,7.69,3.65,8,4.5,8C6.43,8,8,6.43,8,4.5C8,2.74,6.69,1.31,5,1.06z M0.91,2.37C0.35,2.91,0,3.66,0,4.5
				c0,0.96,0.46,1.79,1.16,2.34l2.13-2.13L0.91,2.37z"/>
		</g>
	</g>
</g>
<g id="Layer_1">
</g>
</svg>
