<?xml version="1.0" encoding="iso-8859-1"?>
<!-- Generator: Adobe Illustrator 18.1.1, SVG Export Plug-In . SVG Version: 6.00 Build 0)  -->
<svg version="1.1" xmlns="http://www.w3.org/2000/svg" xmlns:xlink="http://www.w3.org/1999/xlink" x="0px" y="0px"
	 viewBox="0 0 8 8" style="enable-background:new 0 0 8 8;" xml:space="preserve">
<g id="pin">
	<g>
		<g>
			<title>Layer 1</title>
			<path id="svg_1_76_" d="M1.34,0.002c-0.276,0.044-0.464,0.304-0.42,0.58s0.304,0.464,0.58,0.42H2v2H1c-0.55,0-1,0.45-1,1h3v3
				l0.44,1l0.56-1v-3h3c0-0.55-0.45-1-1-1H5v-2h0.5c0.276,0,0.5-0.224,0.5-0.5s-0.224-0.5-0.5-0.5h-4c-0.03-0.003-0.06-0.003-0.09,0
				c-0.02-0.001-0.04-0.001-0.06,0H1.34z"/>
		</g>
	</g>
</g>
<g id="Layer_1">
</g>
</svg>
