<?xml version="1.0" encoding="iso-8859-1"?>
<!-- Generator: Adobe Illustrator 18.1.1, SVG Export Plug-In . SVG Version: 6.00 Build 0)  -->
<svg version="1.1" xmlns="http://www.w3.org/2000/svg" xmlns:xlink="http://www.w3.org/1999/xlink" x="0px" y="0px"
	 viewBox="0 0 8 8" style="enable-background:new 0 0 8 8;" xml:space="preserve">
<g id="power-standby">
	<g>
		<g>
			<title>Layer 1</title>
			<path id="svg_1_29_" d="M3,0v4h1V0H3z M1.72,1.44L1.34,1.75C0.53,2.39,0,3.39,0,4.5C0,6.43,1.57,8,3.5,8S7,6.43,7,4.5
				c0-1.11-0.53-2.11-1.34-2.75L5.28,1.44L4.65,2.22l0.38,0.31C5.61,2.99,6,3.7,6,4.5C6,5.89,4.89,7,3.5,7S1,5.89,1,4.5
				c0-0.8,0.36-1.51,0.94-1.97l0.41-0.31L1.72,1.44z"/>
		</g>
	</g>
</g>
<g id="Layer_1">
</g>
</svg>
