<?xml version="1.0" encoding="iso-8859-1"?>
<!-- Generator: Adobe Illustrator 18.1.1, SVG Export Plug-In . SVG Version: 6.00 Build 0)  -->
<svg version="1.1" xmlns="http://www.w3.org/2000/svg" xmlns:xlink="http://www.w3.org/1999/xlink" x="0px" y="0px"
	 viewBox="0 0 8 8" style="enable-background:new 0 0 8 8;" xml:space="preserve">
<g id="puzzle-piece">
	<g>
		<g>
			<title>Layer 1</title>
			<path id="svg_1_32_" d="M3,0C2.72,0,2.46,0.1,2.28,0.28S2,0.72,2,1s0.18,0.48,0.28,0.72C2.31,1.78,2.31,1.88,2.31,2H0v6h2.31
				c0-0.12-0.01-0.22-0.03-0.28C2.18,7.48,2,7.28,2,7c0-0.28,0.1-0.54,0.28-0.72C2.46,6.1,2.72,6,3,6s0.54,0.1,0.72,0.28
				C3.9,6.46,4,6.72,4,7S3.82,7.48,3.72,7.72C3.69,7.78,3.69,7.88,3.69,8H6V5.69c0.12,0,0.22,0.01,0.28,0.03C6.52,5.82,6.72,6,7,6
				c0.28,0,0.54-0.1,0.72-0.28C7.9,5.54,8,5.28,8,5S7.9,4.46,7.72,4.28C7.54,4.1,7.28,4,7,4C6.72,4,6.52,4.18,6.28,4.28
				C6.22,4.31,6.12,4.31,6,4.31V2H3.69c0-0.12,0.01-0.22,0.03-0.28C3.82,1.48,4,1.28,4,1S3.9,0.46,3.72,0.28S3.28,0,3,0z"/>
		</g>
	</g>
</g>
<g id="Layer_1">
</g>
</svg>
