<?xml version="1.0" encoding="iso-8859-1"?>
<!-- Generator: Adobe Illustrator 18.1.1, SVG Export Plug-In . SVG Version: 6.00 Build 0)  -->
<svg version="1.1" xmlns="http://www.w3.org/2000/svg" xmlns:xlink="http://www.w3.org/1999/xlink" x="0px" y="0px"
	 viewBox="0 0 8 8" style="enable-background:new 0 0 8 8;" xml:space="preserve">
<g id="rain">
	<g>
		<g>
			<title>Layer 1</title>
			<path id="svg_1_33_" d="M4.494,0C3.286,0,2.227,0.86,1.998,2C0.899,2,0,2.9,0,4c0,0.53,0.2,0.99,0.529,1.34
				C0.789,5.12,1.129,5,1.498,5c0.2,0,0.39,0.05,0.559,0.13C2.227,4.49,2.797,4,3.496,4c0.689,0,1.268,0.49,1.438,1.13
				C5.104,5.06,5.293,5,5.493,5c0.629,0,1.149,0.39,1.378,0.94C7.511,5.77,8,5.19,8,4.5C8,3.85,7.581,3.21,7.001,3V2.5
				c0-1.38-1.119-2.5-2.497-2.5H4.494z M3.346,5c-0.212,0.071-0.351,0.276-0.34,0.5v2C3.006,7.776,3.23,8,3.506,8
				s0.499-0.224,0.499-0.5v-2C4.01,5.224,3.79,4.996,3.514,4.992C3.481,4.991,3.448,4.994,3.416,5c-0.02-0.001-0.04-0.001-0.06,0
				H3.346z M1.348,6c-0.212,0.071-0.351,0.276-0.34,0.5v1c0,0.276,0.223,0.5,0.499,0.5s0.499-0.224,0.5-0.5v0v-1
				c0.005-0.276-0.215-0.504-0.491-0.508C1.483,5.991,1.451,5.994,1.418,6c-0.02-0.001-0.04-0.001-0.06,0H1.348z M5.343,6
				c-0.212,0.071-0.351,0.276-0.34,0.5v1c0,0.276,0.224,0.5,0.499,0.5s0.499-0.224,0.499-0.5v-1
				c0.005-0.276-0.215-0.504-0.491-0.508C5.478,5.991,5.446,5.994,5.413,6c-0.02-0.001-0.04-0.001-0.06,0H5.343z"/>
		</g>
	</g>
</g>
<g id="Layer_1">
</g>
</svg>
