<?xml version="1.0" encoding="iso-8859-1"?>
<!-- Generator: Adobe Illustrator 18.1.1, SVG Export Plug-In . SVG Version: 6.00 Build 0)  -->
<svg version="1.1" xmlns="http://www.w3.org/2000/svg" xmlns:xlink="http://www.w3.org/1999/xlink" x="0px" y="0px"
	 viewBox="0 0 8 8" style="enable-background:new 0 0 8 8;" xml:space="preserve">
<g id="random">
	<g>
		<g>
			<title>Layer 1</title>
			<path id="svg_1_63_" d="M6,0v1H5.5C5.15,1,4.94,1.1,4.72,1.38L3.31,3.16L1.78,1.38C1.56,1.12,1.34,1,1,1H0v1h1
				C0.95,2,1.01,2.04,1.03,2.03l1.63,1.91L1,6H0v1h1c0.35,0,0.56-0.1,0.78-0.38l1.53-1.91l1.66,1.91C5.19,6.88,5.41,7,5.75,7H6v1
				l2-1.5L6,5v1H5.78C5.77,5.99,5.73,5.96,5.72,5.97L3.97,3.91L5.5,2H6v1l2-1.5L6,0z"/>
		</g>
	</g>
</g>
<g id="Layer_1">
</g>
</svg>
