<?xml version="1.0" encoding="iso-8859-1"?>
<!-- Generator: Adobe Illustrator 18.1.1, SVG Export Plug-In . SVG Version: 6.00 Build 0)  -->
<svg version="1.1" xmlns="http://www.w3.org/2000/svg" xmlns:xlink="http://www.w3.org/1999/xlink" x="0px" y="0px"
	 viewBox="0 0 8 8" style="enable-background:new 0 0 8 8;" xml:space="preserve">
<g id="rss">
	<g>
		<g>
			<title>Layer 1</title>
			<path id="svg_1_60_" d="M1,0v1c3.32,0,6,2.68,6,6h1C8,3.14,4.86,0,1,0z M1,2v1c2.21,0,4,1.79,4,4h1C6,4.24,3.76,2,1,2z M1,4v1
				c1.11,0,2,0.89,2,2h1C4,5.35,2.65,4,1,4z M1,6C0.45,6,0,6.45,0,7s0.45,1,1,1s1-0.45,1-1S1.55,6,1,6z"/>
		</g>
	</g>
</g>
<g id="Layer_1">
</g>
</svg>
