<?xml version="1.0" encoding="iso-8859-1"?>
<!-- Generator: Adobe Illustrator 18.1.1, SVG Export Plug-In . SVG Version: 6.00 Build 0)  -->
<svg version="1.1" xmlns="http://www.w3.org/2000/svg" xmlns:xlink="http://www.w3.org/1999/xlink" x="0px" y="0px"
	 viewBox="0 0 8 8" style="enable-background:new 0 0 8 8;" xml:space="preserve">
<g id="script">
	<g>
		<g>
			<title>Layer 1</title>
			<path id="svg_1_37_" d="M3,0C2.45,0,2,0.45,2,1v5.5C2,6.78,1.78,7,1.5,7S1,6.78,1,6.5V5H0v2c0,0.55,0.45,1,1,1h5
				c0.55,0,1-0.45,1-1V4H3V1.5C3,1.22,3.22,1,3.5,1S4,1.22,4,1.5V3h4V1c0-0.55-0.45-1-1-1H3z"/>
		</g>
	</g>
</g>
<g id="Layer_1">
</g>
</svg>
