<?xml version="1.0" encoding="iso-8859-1"?>
<!-- Generator: Adobe Illustrator 18.1.1, SVG Export Plug-In . SVG Version: 6.00 Build 0)  -->
<svg version="1.1" xmlns="http://www.w3.org/2000/svg" xmlns:xlink="http://www.w3.org/1999/xlink" x="0px" y="0px"
	 viewBox="0 0 8 8" style="enable-background:new 0 0 8 8;" xml:space="preserve">
<g id="shield">
	<g>
		<g>
			<title>Layer 1</title>
			<path id="svg_1_54_" d="M4,0L3.81,0.09l-3.5,1.47L0,1.69V2c0,1.66,0.67,3.12,1.47,4.19c0.4,0.53,0.83,0.97,1.25,1.28
				C3.14,7.78,3.55,8,4,8c0.46,0,0.86-0.22,1.28-0.53C5.7,7.16,6.13,6.72,6.53,6.19C7.33,5.12,8,3.66,8,2V1.69L7.69,1.56l-3.5-1.47
				L4,0z M4,1.09V7C3.96,7,3.67,6.93,3.34,6.69S2.63,6.06,2.28,5.6C1.64,4.75,1.14,3.57,1.06,2.32L4,1.1V1.09z"/>
		</g>
	</g>
</g>
<g id="Layer_1">
</g>
</svg>
