<?xml version="1.0" encoding="iso-8859-1"?>
<!-- Generator: Adobe Illustrator 18.1.1, SVG Export Plug-In . SVG Version: 6.00 Build 0)  -->
<svg version="1.1" xmlns="http://www.w3.org/2000/svg" xmlns:xlink="http://www.w3.org/1999/xlink" x="0px" y="0px"
	 viewBox="0 0 8 8" style="enable-background:new 0 0 8 8;" xml:space="preserve">
<g id="spreadsheet">
	<g>
		<g>
			<title>Layer 1</title>
			<path id="svg_1_40_" d="M0.75,0C0.34,0,0,0.34,0,0.75v5.5C0,6.66,0.34,7,0.75,7h6.5C7.66,7,8,6.66,8,6.25v-5.5
				C8,0.34,7.66,0,7.25,0H0.75z M1,1h1v1H1V1z M3,1h4v1H3V1z M1,3h1v1H1V3z M3,3h4v1H3V3z M1,5h1v1H1V5z M3,5h4v1H3V5z"/>
		</g>
	</g>
</g>
<g id="Layer_1">
</g>
</svg>
