<?xml version="1.0" encoding="iso-8859-1"?>
<!-- Generator: Adobe Illustrator 18.1.1, SVG Export Plug-In . SVG Version: 6.00 Build 0)  -->
<svg version="1.1" xmlns="http://www.w3.org/2000/svg" xmlns:xlink="http://www.w3.org/1999/xlink" x="0px" y="0px"
	 viewBox="0 0 8 8" style="enable-background:new 0 0 8 8;" xml:space="preserve">
<g id="sun">
	<g>
		<g>
			<title>Layer 1</title>
			<path id="svg_1_41_" d="M4,0C3.72,0,3.5,0.22,3.5,0.5S3.72,1,4,1s0.5-0.22,0.5-0.5S4.28,0,4,0z M1.5,1C1.22,1,1,1.22,1,1.5
				S1.22,2,1.5,2S2,1.78,2,1.5S1.78,1,1.5,1z M6.5,1C6.22,1,6,1.22,6,1.5S6.22,2,6.5,2S7,1.78,7,1.5S6.78,1,6.5,1z M4,2
				C2.9,2,2,2.9,2,4s0.9,2,2,2s2-0.9,2-2S5.1,2,4,2z M0.5,3.5C0.22,3.5,0,3.72,0,4s0.22,0.5,0.5,0.5S1,4.28,1,4S0.78,3.5,0.5,3.5z
				 M7.5,3.5C7.22,3.5,7,3.72,7,4s0.22,0.5,0.5,0.5S8,4.28,8,4S7.78,3.5,7.5,3.5z M1.5,6C1.22,6,1,6.22,1,6.5S1.22,7,1.5,7
				S2,6.78,2,6.5S1.78,6,1.5,6z M6.5,6C6.22,6,6,6.22,6,6.5S6.22,7,6.5,7S7,6.78,7,6.5S6.78,6,6.5,6z M4,7C3.72,7,3.5,7.22,3.5,7.5
				S3.72,8,4,8s0.5-0.22,0.5-0.5S4.28,7,4,7z"/>
		</g>
	</g>
</g>
<g id="Layer_1">
</g>
</svg>
