<?xml version="1.0" encoding="iso-8859-1"?>
<!-- Generator: Adobe Illustrator 18.1.1, SVG Export Plug-In . SVG Version: 6.00 Build 0)  -->
<svg version="1.1" xmlns="http://www.w3.org/2000/svg" xmlns:xlink="http://www.w3.org/1999/xlink" x="0px" y="0px"
	 viewBox="0 0 8 8" style="enable-background:new 0 0 8 8;" xml:space="preserve">
<g id="target">
	<g>
		<g>
			<title>Layer 1</title>
			<path id="svg_1_45_" d="M4,0C1.8,0,0,1.8,0,4s1.8,4,4,4s4-1.8,4-4S6.2,0,4,0z M4,1c1.66,0,3,1.34,3,3S5.66,7,4,7S1,5.66,1,4
				S2.34,1,4,1z M4,2C2.9,2,2,2.9,2,4s0.9,2,2,2s2-0.9,2-2S5.1,2,4,2z M4,3c0.56,0,1,0.44,1,1S4.56,5,4,5S3,4.56,3,4S3.44,3,4,3z"/>
		</g>
	</g>
</g>
<g id="Layer_1">
</g>
</svg>
