<?xml version="1.0" encoding="iso-8859-1"?>
<!-- Generator: Adobe Illustrator 18.1.1, SVG Export Plug-In . SVG Version: 6.00 Build 0)  -->
<svg version="1.1" xmlns="http://www.w3.org/2000/svg" xmlns:xlink="http://www.w3.org/1999/xlink" x="0px" y="0px"
	 viewBox="0 0 8 8" style="enable-background:new 0 0 8 8;" xml:space="preserve">
<g id="thumb-up">
	<g>
		<g>
			<title>Layer 1</title>
			<path id="svg_1_31_" d="M5.143,1C4.914,1,4.686,1.1,4.571,1.3C4.457,1.6,3.314,3.5,3.086,3.7S2.629,4,2.286,4v4h4
				c0.229,0,0.457-0.1,0.571-0.3C6.857,7.7,8,4.8,8,4.5S7.771,4,7.429,4H5.714C5.371,4,5.143,3.8,5.143,3.5S5.6,1.9,5.714,1.7
				S5.6,1.2,5.371,1.1C5.257,1,5.143,1,5.143,1z M0,4v4h1.143V4H0z"/>
		</g>
	</g>
</g>
<g id="Layer_1">
</g>
</svg>
