<?xml version="1.0" encoding="iso-8859-1"?>
<!-- Generator: Adobe Illustrator 18.1.1, SVG Export Plug-In . SVG Version: 6.00 Build 0)  -->
<svg version="1.1" xmlns="http://www.w3.org/2000/svg" xmlns:xlink="http://www.w3.org/1999/xlink" x="0px" y="0px"
	 viewBox="0 0 8 8" style="enable-background:new 0 0 8 8;" xml:space="preserve">
<g id="thumb-down">
	<g>
		<g>
			<title>Layer 1</title>
			<path id="svg_1_48_" d="M0,0v4.004h1V0H0z M2,0v4.004c0.28,0,0.53,0.09,0.72,0.28S3.87,6.406,4,6.666
				c0.13,0.26,0.39,0.39,0.66,0.31c0.26-0.08,0.4-0.36,0.31-0.631C4.89,6.086,4.5,4.754,4.5,4.504c0-0.25,0.22-0.5,0.5-0.5h1.5
				c0.28,0,0.5-0.22,0.5-0.5S5.97,0.31,5.97,0.31C5.89,0.13,5.71,0,5.5,0L2,0z"/>
		</g>
	</g>
</g>
<g id="Layer_1">
</g>
</svg>
