<?xml version="1.0" encoding="iso-8859-1"?>
<!-- Generator: Adobe Illustrator 18.1.1, SVG Export Plug-In . SVG Version: 6.00 Build 0)  -->
<svg version="1.1" xmlns="http://www.w3.org/2000/svg" xmlns:xlink="http://www.w3.org/1999/xlink" x="0px" y="0px"
	 viewBox="0 0 8 8" style="enable-background:new 0 0 8 8;" xml:space="preserve">
<g id="timer">
	<g>
		<g>
			<title>Layer 1</title>
			<path id="svg_1_50_" d="M1.997,0v1h0.999v0.03C1.298,1.27,0,2.74,0,4.5C0,6.43,1.568,8,3.495,8S6.99,6.43,6.99,4.5
				c0-0.45-0.1-0.87-0.25-1.25L5.832,3.63c0.11,0.29,0.16,0.57,0.16,0.88c0,1.39-1.108,2.5-2.496,2.5S0.999,5.9,0.999,4.51
				s1.108-2.5,2.496-2.5c0.3,0,0.589,0.05,0.879,0.16l0.34-0.94c-0.23-0.08-0.469-0.12-0.719-0.16V1.01h0.999v-1H1.997V0z
				 M6.99,1.17c0,0-3.645,2.81-3.835,3c-0.19,0.2-0.19,0.49,0,0.69c0.19,0.2,0.489,0.2,0.689,0S7,1.17,7,1.17L6.99,1.17z"/>
		</g>
	</g>
</g>
<g id="Layer_1">
</g>
</svg>
