<?xml version="1.0" encoding="iso-8859-1"?>
<!-- Generator: Adobe Illustrator 18.1.1, SVG Export Plug-In . SVG Version: 6.00 Build 0)  -->
<svg version="1.1" xmlns="http://www.w3.org/2000/svg" xmlns:xlink="http://www.w3.org/1999/xlink" x="0px" y="0px"
	 viewBox="0 0 8 8" style="enable-background:new 0 0 8 8;" xml:space="preserve">
<g id="trash">
	<g>
		<g>
			<title>Layer 1</title>
			<path id="svg_1_51_" d="M3,0C2.45,0,2,0.45,2,1H1C0.45,1,0,1.45,0,2h7c0-0.55-0.45-1-1-1H5c0-0.55-0.45-1-1-1H3z M1,3v4.81
				C1,7.92,1.08,8,1.19,8h4.63c0.11,0,0.19-0.08,0.19-0.19V3h-1v3.5c0,0.28-0.22,0.5-0.5,0.5s-0.5-0.22-0.5-0.5V3h-1v3.5
				c0,0.28-0.22,0.5-0.5,0.5s-0.5-0.22-0.5-0.5V3h-1H1z"/>
		</g>
	</g>
</g>
<g id="Layer_1">
</g>
</svg>
