<?xml version="1.0" encoding="iso-8859-1"?>
<!-- Generator: Adobe Illustrator 18.1.1, SVG Export Plug-In . SVG Version: 6.00 Build 0)  -->
<svg version="1.1" xmlns="http://www.w3.org/2000/svg" xmlns:xlink="http://www.w3.org/1999/xlink" x="0px" y="0px"
	 viewBox="0 0 8 8" style="enable-background:new 0 0 8 8;" xml:space="preserve">
<g id="volume-high">
	<g>
		<g>
			<title>Layer 1</title>
			<path id="svg_1_57_" d="M3,0L2,2H0v4h2l1,2h1V0H3z M5,1v1c0.17,0,0.34,0.02,0.5,0.06C6.36,2.28,7,3.06,7,4S6.37,5.72,5.5,5.94
				C5.34,5.98,5.17,6,5,6v1c0.25,0,0.48-0.04,0.72-0.09h0.03C7.05,6.58,8,5.4,8,4S7.05,1.42,5.75,1.09C5.52,1.03,5.26,1,5,1z M5,3v2
				c0.09,0,0.18-0.01,0.25-0.03C5.68,4.86,6,4.46,6,4S5.69,3.14,5.25,3.03C5.17,3.01,5.08,3,5,3z"/>
		</g>
	</g>
</g>
<g id="Layer_1">
</g>
</svg>
