<?xml version="1.0" encoding="iso-8859-1"?>
<!-- Generator: Adobe Illustrator 18.1.1, SVG Export Plug-In . SVG Version: 6.00 Build 0)  -->
<svg version="1.1" xmlns="http://www.w3.org/2000/svg" xmlns:xlink="http://www.w3.org/1999/xlink" x="0px" y="0px"
	 viewBox="0 0 8 8" style="enable-background:new 0 0 8 8;" xml:space="preserve">
<g id="warning">
	<g>
		<g>
			<title>Layer 1</title>
			<path id="svg_1_8_" d="M3.104,0c-0.06,0-0.1,0.04-0.13,0.09L0.03,6.909C0.01,6.959,0,7.039,0,7.099V7.91C0,7.96,0.04,8,0.09,8
				h6.82C6.96,8,7,7.96,7,7.91V7.099c0-0.05-0.01-0.14-0.03-0.19L4.026,0.09C4.006,0.04,3.956,0,3.896,0H3.084L3.104,0z
				 M2.994,3.004h1.001v2.003H2.994V3.004z M2.994,6.008h1.001v1.001H2.994V6.008z"/>
		</g>
	</g>
</g>
<g id="Layer_1">
</g>
</svg>
