<?xml version="1.0" encoding="iso-8859-1"?>
<!-- Generator: Adobe Illustrator 18.1.1, SVG Export Plug-In . SVG Version: 6.00 Build 0)  -->
<svg version="1.1" xmlns="http://www.w3.org/2000/svg" xmlns:xlink="http://www.w3.org/1999/xlink" x="0px" y="0px"
	 viewBox="0 0 8 8" style="enable-background:new 0 0 8 8;" xml:space="preserve">
<g id="wifi">
	<g>
		<g>
			<title>Layer 1</title>
			<path id="svg_1_61_" d="M4,0C2.534,0,1.158,0.4,0,1.09L0.563,1.9C1.551,1.31,2.72,0.99,3.984,0.99c1.275,0,2.465,0.31,3.453,0.91
				L8,1.09C6.842,0.39,5.466,0,4,0z M3.984,3C3.145,3,2.39,3.23,1.721,3.63l0.563,0.84C2.784,4.17,3.347,4,3.973,4
				s1.232,0.17,1.732,0.47l0.563-0.84C5.61,3.24,4.813,3,3.973,3L3.984,3z M5.031,7c0-0.552-0.448-1-1-1s-1,0.448-1,1s0.448,1,1,1
				S5.031,7.552,5.031,7z"/>
		</g>
	</g>
</g>
<g id="Layer_1">
</g>
</svg>
