<?xml version="1.0" encoding="iso-8859-1"?>
<!-- Generator: Adobe Illustrator 18.1.1, SVG Export Plug-In . SVG Version: 6.00 Build 0)  -->
<svg version="1.1" xmlns="http://www.w3.org/2000/svg" xmlns:xlink="http://www.w3.org/1999/xlink" x="0px" y="0px"
	 viewBox="0 0 8 8" style="enable-background:new 0 0 8 8;" xml:space="preserve">
<g id="wrench">
	<g>
		<g>
			<title>Layer 1</title>
			<path id="svg_1_3_" d="M5.497,0C4.121,0,3.004,1.119,3.004,2.497c0,0.32,0.08,0.619,0.189,0.909L0.292,6.282
				c-0.389,0.39-0.389,1.049,0,1.438C0.491,7.92,0.75,8,1.01,8s0.519-0.09,0.718-0.28L4.6,4.814c0.279,0.11,0.578,0.19,0.907,0.19
				C6.883,5.004,8,3.885,8,2.507c0-0.16,0-0.32-0.03-0.469L7.003,3.006H5.008V1.009L5.976,0.04c-0.15-0.03-0.309-0.03-0.469-0.03
				L5.497,0z M1.02,6.502c0.279,0,0.499,0.22,0.499,0.499S1.299,7.501,1.02,7.501s-0.499-0.22-0.499-0.499S0.74,6.502,1.02,6.502z"
				/>
		</g>
	</g>
</g>
<g id="Layer_1">
</g>
</svg>
