<?xml version="1.0" encoding="iso-8859-1"?>
<!-- Generator: Adobe Illustrator 18.1.1, SVG Export Plug-In . SVG Version: 6.00 Build 0)  -->
<svg version="1.1" xmlns="http://www.w3.org/2000/svg" xmlns:xlink="http://www.w3.org/1999/xlink" x="0px" y="0px"
	 viewBox="0 0 8 8" style="enable-background:new 0 0 8 8;" xml:space="preserve">
<g id="zoom-out">
	<g>
		<g>
			<title>Layer 1</title>
			<path id="svg_1_1_" d="M3.473,0C1.558,0,0,1.558,0,3.473s1.558,3.473,3.473,3.473c0.605,0,1.181-0.159,1.677-0.437
				c0.026,0.045,0.056,0.088,0.089,0.129L6.231,7.66C6.603,8.078,7.242,8.116,7.66,7.744s0.456-1.011,0.084-1.429
				C7.718,6.286,7.69,6.258,7.66,6.231L6.638,5.239C6.598,5.206,6.554,5.176,6.509,5.15c0.268-0.496,0.437-1.072,0.437-1.677
				C6.946,1.558,5.388,0,3.473,0z M3.473,0.992c1.379,0,2.481,1.101,2.481,2.481c0,0.585-0.198,1.131-0.526,1.548
				c-0.01,0.01-0.02,0.02-0.03,0.03c-0.02,0.009-0.04,0.019-0.06,0.03C5.239,5.156,5.155,5.251,5.09,5.358
				C4.654,5.725,4.088,5.944,3.473,5.944c-1.379,0-2.481-1.101-2.481-2.481s1.101-2.481,2.481-2.481V0.992z M1.985,2.977v0.992
				h2.977V2.977H1.985z"/>
		</g>
	</g>
</g>
<g id="Layer_1">
</g>
</svg>
