<?xml version="1.0" encoding="iso-8859-1"?>
<!-- Generator: Adobe Illustrator 18.1.1, SVG Export Plug-In . SVG Version: 6.00 Build 0)  -->
<svg version="1.1" xmlns="http://www.w3.org/2000/svg" xmlns:xlink="http://www.w3.org/1999/xlink" x="0px" y="0px"
	 viewBox="0 0 8 8" style="enable-background:new 0 0 8 8;" xml:space="preserve">
<g id="zoom-in">
	<g>
		<path d="M7.7,6.3L6.6,5.2C6.9,4.7,7,4.1,7,3.5C7,1.6,5.4,0,3.5,0S0,1.6,0,3.5S1.6,7,3.5,7c0.6,0,1.2-0.2,1.7-0.4l1.1,1.1
			C6.5,7.9,6.7,8,7,8c0.6,0,1-0.4,1-1C8,6.7,7.9,6.5,7.7,6.3z M3.5,6C2.1,6,1,4.9,1,3.5S2.1,1,3.5,1S6,2.1,6,3.5S4.9,6,3.5,6z"/>
		<polygon points="4,2 3,2 3,3 2,3 2,4 3,4 3,5 4,5 4,4 5,4 5,3 4,3 		"/>
	</g>
</g>
<g id="Layer_1">
</g>
</svg>
