<?xml version="1.0" encoding="iso-8859-1"?>
<!-- Generator: Adobe Illustrator 18.1.1, SVG Export Plug-In . SVG Version: 6.00 Build 0)  -->
<svg version="1.1" xmlns="http://www.w3.org/2000/svg" xmlns:xlink="http://www.w3.org/1999/xlink" x="0px" y="0px"
	 viewBox="0 0 8 8" style="enable-background:new 0 0 8 8;" xml:space="preserve">
<g id="zoom-in">
	<path d="M7.707,6.293l-1.14-1.14C6.834,4.659,7,4.101,7,3.5C7,1.567,5.433,0,3.5,0S0,1.567,0,3.5S1.567,7,3.5,7
		c0.601,0,1.159-0.166,1.653-0.433l1.14,1.14c0.391,0.391,1.024,0.391,1.414,0C8.098,7.317,8.098,6.683,7.707,6.293z M3.5,6
		C2.119,6,1,4.881,1,3.5C1,2.119,2.119,1,3.5,1S6,2.119,6,3.5C6,4.881,4.881,6,3.5,6z"/>
	<polygon points="4,2 3,2 3,3 2,3 2,4 3,4 3,5 4,5 4,4 5,4 5,3 4,3 	"/>
</g>
<g id="Layer_1">
</g>
</svg>
