<svg version="1.1" xmlns="http://www.w3.org/2000/svg" xmlns:xlink="http://www.w3.org/1999/xlink" x="0px" y="0px" width="64px"
	 height="64px" viewBox="0 0 64 64" enable-background="new 0 0 64 64" xml:space="preserve" fill="white">
<g id="circles">
</g>
<g id="icons">
</g>
<g id="guides">
	<path d="M50,16.3c-2.7-1.6-5.4-2.3-8.1-2.3c-3.2,0-6.5,1-9.8,3c-3.3-2-6.6-3-9.8-3c-2.8,0-5.5,0.8-8.1,2.3c-0.6,0.4-1,1-1,1.8v25.4
		c0,1.2,1,2.1,2,2.1c0.3,0,0.5-0.1,0.8-0.2c2.1-0.9,4.2-1.4,6.3-1.4c3.2,0,6.5,1,9.8,3c3-2,6.1-3,9.2-3c2.3,0,4.6,0.5,7,1.5
		c0.3,0.1,0.6,0.2,0.8,0.2c1.1,0,2-0.9,2-2V18.1C51,17.4,50.6,16.7,50,16.3z M15,43.6C15,43.6,15,43.6,15,43.6l0-25.4
		c0,0,0,0,0.1-0.1c2-1.2,3.9-1.8,5.9-2V23c0,0.7,0.9,1.1,1.4,0.6c0.3-0.3,0.8-0.3,1.2,0c0.5,0.5,1.4,0.2,1.4-0.6v-6.7
		c1.9,0.4,3.9,1.2,6,2.4c0,0,0,0,0,0v25.5c-3-1.5-6-2.2-8.8-2.2C19.7,42,17.3,42.5,15,43.6z M49,43.7C49,43.7,49,43.7,49,43.7
		C48.9,43.7,48.9,43.7,49,43.7c-2.7-1.1-5.3-1.7-7.8-1.7c-2.8,0-5.5,0.7-8.2,2.1V18.7c0,0,0,0,0,0c3.1-1.8,6-2.7,8.8-2.7
		c2.4,0,4.8,0.7,7.1,2.1c0,0,0.1,0.1,0.1,0.1L49,43.7z"/>
</g>
</svg>
