<svg version="1.1" xmlns="http://www.w3.org/2000/svg" xmlns:xlink="http://www.w3.org/1999/xlink" x="0px" y="0px" width="64px"
	 height="64px" viewBox="0 0 64 64" enable-background="new 0 0 64 64" xml:space="preserve" fill="white">
<g id="circles">
</g>
<g id="icons">
</g>
<g id="guides">
	<g>
		<path d="M17.9,27.7h16.9c0.5,0,0.9-0.4,0.9-0.9c0-0.5-0.4-0.9-0.9-0.9H17.9c-0.5,0-0.9,0.4-0.9,0.9C16.9,27.3,17.4,27.7,17.9,27.7
			z"/>
		<path d="M28.7,29.8H17.9c-0.5,0-0.9,0.4-0.9,0.9c0,0.5,0.4,0.9,0.9,0.9h10.8c0.5,0,0.9-0.4,0.9-0.9C29.6,30.3,29.2,29.8,28.7,29.8
			z"/>
		<path d="M24.4,33.8h-6.5c-0.5,0-0.9,0.4-0.9,0.9c0,0.5,0.4,0.9,0.9,0.9h6.5c0.5,0,0.9-0.4,0.9-0.9C25.3,34.3,24.9,33.8,24.4,33.8z
			"/>
		<path d="M39.9,30.3V11.9c0-0.5-0.4-0.9-0.9-0.9H22.1c-0.3,0-0.5,0.1-0.7,0.3l-8.2,8.9c-0.2,0.2-0.2,0.4-0.2,0.6v22.2
			c0,0.5,0.4,0.9,0.9,0.9h14.9c1.1,5.1,5.6,9,11,9C46,53,51,47.9,51,41.6C51,35.4,46,30.4,39.9,30.3z M21.9,13.5v6.7h-6.1L21.9,13.5
			z M28.6,42.1H14.9v-20h8c0.5,0,0.9-0.4,0.9-0.9v-8.3H38v17.5c-5.4,0.8-9.5,5.5-9.5,11.2C28.6,41.8,28.6,42,28.6,42.1z M39.8,51.1
			c-5.2,0-9.4-4.2-9.4-9.5c0-5.2,4.2-9.5,9.4-9.5c5.2,0,9.4,4.2,9.4,9.5C49.1,46.9,44.9,51.1,39.8,51.1z"/>
		<path d="M45.3,40.3h-2.2v-3.8c0-0.5-0.4-0.9-0.9-0.9h-4.8c-0.5,0-0.9,0.4-0.9,0.9v3.8h-2.2c-0.4,0-0.7,0.2-0.8,0.5
			c-0.2,0.3-0.1,0.7,0.1,1l5.5,6.8c0.2,0.2,0.4,0.3,0.7,0.3s0.5-0.1,0.7-0.3l5.5-6.8c0.2-0.3,0.3-0.7,0.1-1
			C46,40.5,45.7,40.3,45.3,40.3z M39.8,46.5l-3.6-4.4h1.2c0.5,0,0.9-0.4,0.9-0.9v-3.8h3v3.8c0,0.5,0.4,0.9,0.9,0.9h1.2L39.8,46.5z"
			/>
	</g>
</g>
</svg>