<svg version="1.1" xmlns="http://www.w3.org/2000/svg" enable-background="new 0 0 72 15" style="display:none;" viewBox="0 0 72 15">
    <defs>

        <path viewBox="0 0 72 15" d="M15.5,15h0.1l5.1-12.7c0.5-1.2,1-1.8,1.4-2.1V0h-3.1v0.1c0.6,0.4,0.8,1.3,0.4,2.4l-3.2,7.9L12,0h-0.1
	L7.4,10.4L4.2,2.2c-0.4-1-0.3-1.7,0.3-2.1V0H0v0.1C0.5,0.4,0.8,0.9,1.3,2l5.3,13h0.1l4.5-10.5L15.5,15z M48.8,8.1V4h4.3
	c2,0,2.7,0.3,3.4,1.3l0.1,0L56.4,3H45.6l0,0.1c0.6,0.4,0.8,1,0.8,1.8v8.2c0,0.9-0.2,1.4-0.8,1.8l0,0.1H57l0.4-2.4l-0.1,0
	c-0.7,1-1.6,1.5-3.6,1.5h-5V9.1h3.3c1.4,0,2.1,0.2,2.5,0.8h0.1V7.3l-0.1,0c-0.4,0.6-1.1,0.8-2.5,0.8H48.8z M63.3,14.9l0,0.1h4.2
	v-0.1c-0.7-0.4-0.9-1-0.9-2V10l3.7-5.2c0.7-1,1.2-1.5,1.7-1.7V3h-3.3v0.1c0.6,0.3,0.7,1.1,0,2L66.1,9l-3-4.3
	c-0.5-0.7-0.4-1.3,0.2-1.6V3h-4.6v0.1c0.5,0.2,0.9,0.5,1.5,1.4l4,5.7v2.7C64.2,13.9,64,14.5,63.3,14.9 M43.2,15l0.6-2.5l-0.1,0
	c-0.7,1.1-1.8,1.6-3.4,1.6h-4.7V5.1c0-1,0.3-1.6,1-2V3h-4.2l0,0.1c0.6,0.4,0.8,1,0.8,1.8v8.2c0,0.9-0.2,1.4-0.8,1.8l0,0.1H43.2z
	 M24.8,13c0,0.9-0.2,1.5-0.9,1.9V15h4.1v-0.1c-0.7-0.4-0.9-1-0.9-1.9V5c0-0.9,0.2-1.5,0.9-1.9V3h-4.1v0.1c0.7,0.4,0.9,1,0.9,1.9V13z
	" id="wiley-logo"></path>
    </defs>
</svg>