<svg width="146" height="59" xmlns="http://www.w3.org/2000/svg" xmlns:svg="http://www.w3.org/2000/svg">
 <g>
  <title>Layer 1</title>
  <path id="svg_1" d="m41.71001,41l0.15001,0l7.84,-19.53c0.76001,-1.88 1.48001,-2.79999 2.16,-3.20999l0,-0.20001l-4.70999,0l0,0.20001c0.98999,0.53 1.21997,2.00998 0.53,3.69l-4.81001,12.04999l-6.53001,-16l-0.14999,0l-6.88,15.97l-4.94,-12.57999c-0.59,-1.5 -0.40999,-2.62003 0.51001,-3.16l0,-0.20001l-6.88,0l0,0.20001c0.74001,0.37997 1.27,1.16998 1.94,2.79999l8.09999,19.97l0.15001,0l6.83,-16.17001l6.69,16.17001zm50.83998,-11.20999l0,-6.34l6.62,0c3.03,0 4.17999,0.48001 5.27002,2.01001l0.19998,-0.08002l-0.41,-3.48999l-16.57999,0l-0.03,0.14999c0.98999,0.61002 1.26999,1.5 1.26999,2.78l0,12.56c0,1.30002 -0.28,2.16 -1.26999,2.78l0.03,0.20001l17.44998,0l0.64001,-3.77002l-0.14999,-0.07999c-1.12,1.5 -2.45001,2.26999 -5.45001,2.26999l-7.59,0l0,-7.48999l5.07001,0c2.16,0 3.26001,0.36002 3.82001,1.26999l0.22998,0l0,-4.01999l-0.22998,-0.03c-0.59003,0.92001 -1.66,1.26999 -3.82001,1.26999l-5.07001,0l0,0.01001zm22.21002,10.37l0.03,0.19998l6.37,0l0,-0.19998c-1.04001,-0.61002 -1.38,-1.55002 -1.38,-3.08002l0,-4.32999l5.60001,-8c1.02002,-1.48001 1.88,-2.37 2.62,-2.67001l0,-0.14999l-4.97,0l0,0.14999c0.89001,0.51001 1.02002,1.76001 0.08002,3.13l-4.10001,5.91l-4.53,-6.66998c-0.70999,-1.02002 -0.59,-1.94 0.25,-2.39001l0,-0.14999l-6.98001,0l0,0.14999c0.84,0.36002 1.35001,0.82001 2.24002,2.11002l6.19,8.84l0,4.07999c-0.02002,1.51001 -0.38004,2.45999 -1.42001,3.07001m-30.77002,0.19998l0.89001,-3.89999l-0.20001,-0.07999c-1.10001,1.67999 -2.75,2.38998 -5.20001,2.38998l-7.20999,0l0,-13.64999c0,-1.55002 0.38,-2.45001 1.48001,-3.08002l0,-0.14999l-6.34,0l-0.03,0.14999c0.98999,0.61002 1.26999,1.5 1.26999,2.78l0,12.56003c0,1.29999 -0.28,2.15997 -1.26999,2.78l0.03,0.19998l16.57999,0l0,0zm-28.09,-3.12997c0,1.42999 -0.33002,2.37 -1.35001,2.92999l0,0.20001l6.32001,0l0,-0.20001c-1.02002,-0.56 -1.35001,-1.5 -1.35001,-2.92999l0,-12.25c0,-1.39999 0.31,-2.32001 1.35001,-2.92999l0,-0.14999l-6.29001,0l0,0.14999c1.01999,0.60999 1.35001,1.53 1.35001,2.92999l0,12.25l-0.03,0z" fill="#FFFFFF"/>
 </g>
</svg>