<svg xmlns="http://www.w3.org/2000/svg" width="64" height="64" viewBox="0 0 64 64" fill="#fff"><path d="M17.9 27.7h16.9c.5 0 .9-.4.9-.9s-.4-.9-.9-.9H17.9c-.5 0-.9.4-.9.9-.1.5.4.9.9.9zM28.7 29.8H17.9c-.5 0-.9.4-.9.9s.4.9.9.9h10.8c.5 0 .9-.4.9-.9 0-.4-.4-.9-.9-.9zM24.4 33.8h-6.5c-.5 0-.9.4-.9.9s.4.9.9.9h6.5c.5 0 .9-.4.9-.9 0-.4-.4-.9-.9-.9z"/><path d="M39.9 30.3V11.9c0-.5-.4-.9-.9-.9H22.1c-.3 0-.5.1-.7.3l-8.2 8.9c-.2.2-.2.4-.2.6V43c0 .5.4.9.9.9h14.9c1.1 5.1 5.6 9 11 9C46 53 51 47.9 51 41.6c0-6.2-5-11.2-11.1-11.3zm-18-16.8v6.7h-6.1l6.1-6.7zm6.7 28.6H14.9v-20h8c.5 0 .9-.4.9-.9v-8.3H38v17.5c-5.4.8-9.5 5.5-9.5 11.2.1.2.1.4.1.5zm11.2 9c-5.2 0-9.4-4.2-9.4-9.5 0-5.2 4.2-9.5 9.4-9.5s9.4 4.2 9.4 9.5c-.1 5.3-4.3 9.5-9.4 9.5z"/><path d="M45.3 40.3h-2.2v-3.8c0-.5-.4-.9-.9-.9h-4.8c-.5 0-.9.4-.9.9v3.8h-2.2c-.4 0-.7.2-.8.5-.2.3-.1.7.1 1l5.5 6.8c.2.2.4.3.7.3s.5-.1.7-.3l5.5-6.8c.2-.3.3-.7.1-1-.1-.3-.4-.5-.8-.5zm-5.5 6.2l-3.6-4.4h1.2c.5 0 .9-.4.9-.9v-3.8h3v3.8c0 .5.4.9.9.9h1.2l-3.6 4.4z"/></svg>