<svg xmlns="http://www.w3.org/2000/svg" width="64" height="64" viewBox="0 0 64 64" fill="#fff"><path d="M50 16.3c-2.7-1.6-5.4-2.3-8.1-2.3-3.2 0-6.5 1-9.8 3-3.3-2-6.6-3-9.8-3-2.8 0-5.5.8-8.1 2.3-.6.4-1 1-1 1.8v25.4c0 1.2 1 2.1 2 2.1.3 0 .5-.1.8-.2 2.1-.9 4.2-1.4 6.3-1.4 3.2 0 6.5 1 9.8 3 3-2 6.1-3 9.2-3 2.3 0 4.6.5 7 1.5.3.1.6.2.8.2 1.1 0 2-.9 2-2V18.1c-.1-.7-.5-1.4-1.1-1.8zM15 43.6V18.2l.1-.1c2-1.2 3.9-1.8 5.9-2V23c0 .7.9 1.1 1.4.6.3-.3.8-.3 1.2 0 .5.5 1.4.2 1.4-.6v-6.7c1.9.4 3.9 1.2 6 2.4v25.5c-3-1.5-6-2.2-8.8-2.2-2.5 0-4.9.5-7.2 1.6zm34 .1c-.1 0-.1 0 0 0-2.7-1.1-5.3-1.7-7.8-1.7-2.8 0-5.5.7-8.2 2.1V18.7c3.1-1.8 6-2.7 8.8-2.7 2.4 0 4.8.7 7.1 2.1l.1.1v25.5z"/></svg>