<svg width="146" height="59" xmlns="http://www.w3.org/2000/svg"><path d="M41.71 41h.15l7.84-19.53c.76-1.88 1.48-2.8 2.16-3.21v-.2h-4.71v.2c.99.53 1.22 2.01.53 3.69L42.87 34l-6.53-16h-.15l-6.88 15.97-4.94-12.58c-.59-1.5-.41-2.62.51-3.16v-.2H18v.2c.74.38 1.27 1.17 1.94 2.8L28.04 41h.15l6.83-16.17L41.71 41zm50.84-11.21v-6.34h6.62c3.03 0 4.18.48 5.27 2.01l.2-.08-.41-3.49H87.65l-.03.15c.99.61 1.27 1.5 1.27 2.78v12.56c0 1.3-.28 2.16-1.27 2.78l.03.2h17.45l.64-3.77-.15-.08c-1.12 1.5-2.45 2.27-5.45 2.27h-7.59v-7.49h5.07c2.16 0 3.26.36 3.82 1.27h.23v-4.02l-.23-.03c-.59.92-1.66 1.27-3.82 1.27h-5.07v.01zm22.21 10.37l.03.2h6.37v-.2c-1.04-.61-1.38-1.55-1.38-3.08v-4.33l5.6-8c1.02-1.48 1.88-2.37 2.62-2.67v-.15h-4.97v.15c.89.51 1.02 1.76.08 3.13l-4.1 5.91-4.53-6.67c-.71-1.02-.59-1.94.25-2.39v-.15h-6.98v.15c.84.36 1.35.82 2.24 2.11l6.19 8.84v4.08c-.02 1.51-.38 2.46-1.42 3.07m-30.77.2l.89-3.9-.2-.08c-1.1 1.68-2.75 2.39-5.2 2.39h-7.21V25.12c0-1.55.38-2.45 1.48-3.08v-.15h-6.34l-.03.15c.99.61 1.27 1.5 1.27 2.78v12.56c0 1.3-.28 2.16-1.27 2.78l.03.2h16.58zM55.9 37.23c0 1.43-.33 2.37-1.35 2.93v.2h6.32v-.2c-1.02-.56-1.35-1.5-1.35-2.93V24.98c0-1.4.31-2.32 1.35-2.93v-.15h-6.29v.15c1.02.61 1.35 1.53 1.35 2.93v12.25h-.03z" fill="#FFF"/></svg>