<svg xmlns="http://www.w3.org/2000/svg" viewBox="0 0 8 8"><path d="M4 0C2.67 0 1.88 1.733 2.75 2.594c-.1.072-.29.145-.392.228L.894 2.137a.582.582 0 0 0-.145-.062.572.572 0 0 0-.6.28c-.137.257-.024.568.252.696l1.296.582c-.1.166-.212.343-.28.52H.65c-.31 0-.56.23-.56.518s.25.52.56.52h.56c0 .238.02.466.066.684 0 0-.996.47-1.05.508a.495.495 0 0 0-.112.726c.185.23.535.276.782.104l.737-.353c.27.476.662.88 1.12 1.14.39-.198.75-.47.75-.75V4.5a.5.5 0 0 1 1 0v2.75c0 .28.36.552.75.75.458-.26.85-.664 1.12-1.14l.736.352c.247.172.597.125.782-.104s.135-.554-.112-.726c-.054-.037-1.05-.508-1.05-.508a3.38 3.38 0 0 0 .067-.685h.56c.308 0 .558-.233.558-.52s-.25-.52-.558-.52h-.77c-.068-.175-.18-.352-.28-.518l1.296-.58c.276-.13.39-.44.25-.697a.572.572 0 0 0-.597-.28.582.582 0 0 0-.144.062l-1.464.685c-.1-.083-.29-.156-.392-.228C6.12 1.734 5.33 0 4 0z"/></svg>