<svg xmlns="http://www.w3.org/2000/svg" viewBox="0 0 8 8"><path d="M3.99.01c-1.33 0-2.213 1.755-1.33 2.595-.102.073-.224.145-.314.228L.882 2.148a.594.594 0 0 0-.38-.062c-.3.068-.483.35-.41.627a.53.53 0 0 0 .31.348l1.295.582c-.1.166-.212.342-.28.52h-.77a.568.568 0 0 0-.1 0c-.31.025-.537.278-.51.565s.3.498.61.472h.56c0 .238.02.466.066.684l-.87.425c-.297.08-.467.367-.38.642s.396.433.692.353a.585.585 0 0 0 .18-.083l.736-.353c.28.476.694.88 1.152 1.13.39-.197.718-.46.718-.75V4.5c0-.378.232-.5.5-.5.313 0 .5.21.5.5v2.75c0 .28.327.542.718.74a3.06 3.06 0 0 0 1.15-1.13l.738.352c.247.172.597.125.782-.104s.135-.554-.112-.726a.574.574 0 0 0-.18-.083l-.87-.426a3.38 3.38 0 0 0 .067-.685h.56c.308 0 .558-.233.558-.52s-.25-.52-.558-.52h-.77c-.068-.175-.18-.352-.28-.518l1.296-.58c.276-.13.39-.44.25-.697a.572.572 0 0 0-.597-.28.582.582 0 0 0-.144.062l-1.464.685c-.1-.083-.212-.156-.313-.228C6.2 1.734 5.33 0 4 0l-.01.01z"/></svg>