<svg xmlns="http://www.w3.org/2000/svg" viewBox="0 0 8 8"><path d="M3.5 0l-.498 1.187c-.1.03-.19.08-.28.13l-1.186-.5-.718.72.5 1.186c-.05.1-.09.18-.13.28L0 3.5v1l1.187.498c.04.1.08.18.13.28l-.5 1.186.72.718 1.186-.5c.09.04.18.09.28.13L3.5 8h1l.498-1.187c.09-.04.19-.08.28-.13l1.186.5.718-.72-.5-1.186c.04-.09.09-.19.13-.28L8 4.5v-1l-1.187-.498c-.03-.09-.08-.19-.13-.28l.5-1.186-.72-.718-1.186.5c-.09-.04-.19-.09-.28-.13L4.5 0h-1zM4 2.494c.828 0 1.496.668 1.496 1.496S4.828 5.486 4 5.486 2.504 4.818 2.504 3.99 3.172 2.494 4 2.494z"/></svg>