<svg xmlns="http://www.w3.org/2000/svg" viewBox="0 0 8 8"><path d="M2 2.5a.5.5 0 0 1 .5-.5h2a.5.5 0 0 1 .5.5l.002.496H6v-.998c0-.34-.2-.63-.44-.78-.23-.16-.518-.22-.807-.22h-.75L4 0H3l.006 1h-.75C1.58 1 1.01 1.567 1.01 2.246v.5c0 .678.438 1.237 1.087 1.407l2.555.66c.14.04.348.29.348.44v.372C5 5.833 4.776 6 4.5 6h-2a.5.5 0 0 1-.5-.5V5H1v1.002c0 .34.2.63.44.78.23.16.518.22.807.22L3 7v1h1V7h.743c.69 0 1.248-.558 1.248-1.247v-.5c0-.68-.438-1.238-1.087-1.408l-2.556-.66c-.14-.04-.34-.29-.34-.438L2 2.5z"/></svg>