<svg xmlns="http://www.w3.org/2000/svg" viewBox="0 0 8 8"><path d="M4.437.008a.515.515 0 0 0-.128.06L1.354 1.565c-.26.077-.41.354-.335.62a.49.49 0 0 0 .768.258L4.742.946a.503.503 0 0 0 .222-.67.49.49 0 0 0-.527-.268zm.985 1.497a.515.515 0 0 0-.128.06L1.354 3.56c-.26.08-.41.356-.334.62a.492.492 0 0 0 .768.26l3.94-1.996a.504.504 0 0 0 .22-.67.49.49 0 0 0-.526-.27zm0 1.997a.515.515 0 0 0-.128.06L2.34 5.06a.503.503 0 0 0-.2.675.492.492 0 0 0 .416.262h1.97a.5.5 0 0 0 .57-.42A.504.504 0 0 0 4.683 5l1.044-.56a.502.502 0 0 0 .22-.67.488.488 0 0 0-.525-.268zm-2.52 3.493a.506.506 0 0 0-.415.58.5.5 0 0 0 .57.42h.986a.495.495 0 0 0 .492-.5c0-.276-.22-.5-.492-.5h-.985a.44.44 0 0 0-.09 0H2.9z"/></svg>