<svg xmlns="http://www.w3.org/2000/svg" viewBox="0 0 8 8"><path d="M4 7H3a.5.5 0 0 0 0 1h1a.5.5 0 0 0 0-1zM5.5 3.5a.483.483 0 0 0-.22.057l-.003-.005-3 1.5.002.005a.5.5 0 0 0-.182.16l-.026.04A.483.483 0 0 0 2 5.5a.5.5 0 0 0 .5.5h2a.5.5 0 0 0 .5-.5.493.493 0 0 0-.416-.483l1.14-.57-.003-.004A.495.495 0 0 0 5.5 3.5zM5.72 2.443a.495.495 0 1 0-.44-.886l-.003-.005-4 2 .002.005a.495.495 0 1 0 .44.886l.003.005 4-2-.002-.005zM1.5 2.5c.08 0 .154-.023.22-.057l.003.005 3-1.5L4.72.943a.495.495 0 1 0-.44-.886L4.276.052l-3 1.5.002.005a.495.495 0 0 0 .22.943z"/></svg>