<svg xmlns="http://www.w3.org/2000/svg" viewBox="0 0 8 8"><path d="M2 0v1H1v1h2V0H2zm3.872.03c-.18.01-.36.03-.53.09-.27.1-.532.25-.752.47l-.44.44a.5.5 0 1 0 .69.69l.442-.44c.11-.11.24-.17.38-.22.35-.12.78-.07 1.06.22.39.39.39 1.04 0 1.44l-1.5 1.5a.5.5 0 1 0 .69.69l1.502-1.5c.78-.78.78-2.04 0-2.81-.28-.28-.61-.45-.97-.53-.18-.04-.38-.04-.562-.03l-.01-.01zM2.278 2.94a.508.508 0 0 0-.19.16L.586 4.6c-.78.78-.78 2.04 0 2.81.56.56 1.362.72 2.063.47.27-.1.53-.25.75-.47l.44-.44a.5.5 0 1 0-.69-.69l-.442.44c-.11.11-.24.17-.38.22-.35.12-.78.07-1.06-.22-.39-.39-.39-1.04 0-1.44l1.5-1.5a.5.5 0 0 0-.44-.84.6.6 0 0 0-.06 0h.01zM5 6v2h1V7h1V6H5z"/></svg>