<svg xmlns="http://www.w3.org/2000/svg" viewBox="0 0 8 8"><path d="M5.88 0c-.18.01-.36.03-.53.09-.272.1-.532.25-.753.472a.503.503 0 1 0 .692.694c.11-.11.24-.17.38-.22.35-.122.782-.07 1.063.22.39.392.39 1.045 0 1.446L5.228 4.21c-.44.44-.802.48-1.063.47-.26-.01-.41-.13-.41-.13a.51.51 0 1 0-.5.884c-.002 0 .34.22.84.25.5.03 1.203-.16 1.815-.782l1.504-1.507A1.99 1.99 0 0 0 6.44.04C6.26 0 6.06 0 5.88.01V0zM3.875 2.33c-.502-.02-1.193.15-1.785.754L.586 4.59a1.99 1.99 0 0 0 0 2.822 1.97 1.97 0 0 0 2.066.473c.27-.1.53-.25.752-.472a.503.503 0 1 0-.692-.693.99.99 0 0 1-.38.22c-.352.12-.783.07-1.064-.22a1.038 1.038 0 0 1 0-1.446l1.504-1.507c.4-.402.752-.452 1.033-.442s.47.09.47.09a.502.502 0 1 0 .443-.883s-.34-.2-.842-.22v.018z"/></svg>