<svg xmlns="http://www.w3.org/2000/svg" viewBox="0 0 8 8"><path d="M5.01 0c-.513 0-1.025.21-1.416.59L.804 3.314a2.746 2.746 0 0 0 0 3.884 2.76 2.76 0 0 0 3.894 0l1.254-1.25-.693-.692-1.164 1.13-.09.13c-.692.692-1.816.692-2.508 0-.682-.68-.662-1.78 0-2.47l2.79-2.754a1.04 1.04 0 0 1 1.444 0c.39.39.37 1.012 0 1.412l-2.51 2.473c-.1.1-.27.1-.38 0-.1-.1-.1-.27 0-.38l.06-.03.913-.94-.692-.692-.974.97a1.24 1.24 0 1 0 1.756 1.752l2.507-2.44a1.978 1.978 0 0 0 0-2.814C6.023.21 5.52.01 5 .01L5.01 0z"/></svg>