<svg xmlns="http://www.w3.org/2000/svg" viewBox="0 0 8 8"><path d="M4.494 0C3.286 0 2.227.86 1.998 2 .898 2 0 2.9 0 4c0 .53.2.99.53 1.34.26-.22.6-.34.968-.34.2 0 .39.05.56.13.17-.64.74-1.13 1.438-1.13.69 0 1.268.49 1.438 1.13.17-.07.36-.13.56-.13.628 0 1.148.39 1.377.94C7.51 5.77 8 5.19 8 4.5c0-.65-.42-1.29-1-1.5v-.5A2.5 2.5 0 0 0 4.505 0h-.01zM3.346 5a.5.5 0 0 0-.34.5v2a.5.5 0 1 0 1 0v-2a.5.5 0 0 0-.59-.5.6.6 0 0 0-.06 0h-.01zM1.348 6a.5.5 0 0 0-.34.5v1a.5.5 0 0 0 1 0v-1a.5.5 0 0 0-.59-.5.6.6 0 0 0-.06 0h-.01zm3.995 0a.5.5 0 0 0-.34.5v1A.5.5 0 0 0 6 7.5v-1a.5.5 0 0 0-.587-.5.6.6 0 0 0-.06 0h-.01z"/></svg>