<svg xmlns="http://www.w3.org/2000/svg" viewBox="0 0 8 8"><path d="M3.473 0C1.558 0 0 1.558 0 3.473s1.558 3.473 3.473 3.473c.605 0 1.18-.16 1.677-.437.026.044.056.087.09.128l.99 1.022a1.012 1.012 0 1 0 1.43-1.43l-1.022-.99a.953.953 0 0 0-.13-.09 3.543 3.543 0 0 0 .438-1.677A3.477 3.477 0 0 0 3.473 0zm0 .992c1.38 0 2.48 1.1 2.48 2.48a2.51 2.51 0 0 1-.525 1.55l-.03.03a.84.84 0 0 0-.06.03.996.996 0 0 0-.248.276 2.504 2.504 0 0 1-1.617.586c-1.38 0-2.48-1.1-2.48-2.48S2.092.98 3.472.98v.01zM1.985 2.977v.992h2.977v-.993H1.985z"/></svg>